<svg width="21" height="21" viewBox="0 0 21 21" fill="none" xmlns="http://www.w3.org/2000/svg">
<path d="M14.8554 15.003C14.8349 13.6861 14.4246 12.4888 13.6952 11.6218C12.9701 10.7602 11.9873 10.2857 10.9277 10.2857C9.86803 10.2857 8.88527 10.7602 8.16011 11.6218C7.43141 12.4878 7.02143 13.6835 7 14.9987C7.41205 15.2051 9.11719 16 10.9277 16C12.8854 16 14.4733 15.2098 14.8554 15.003Z" fill="#222222"/>
<path d="M14.8554 15.003C14.8349 13.6861 14.4246 12.4888 13.6952 11.6218C12.9701 10.7602 11.9873 10.2857 10.9277 10.2857C9.86803 10.2857 8.88527 10.7602 8.16011 11.6218C7.43141 12.4878 7.02143 13.6835 7 14.9987C7.41205 15.2051 9.11719 16 10.9277 16C12.8854 16 14.4733 15.2098 14.8554 15.003Z" fill="#222222"/>
<path d="M10.9277 9.92857C12.0125 9.92857 12.8919 9.04913 12.8919 7.96429C12.8919 6.87944 12.0125 6 10.9277 6C9.84282 6 8.96338 6.87944 8.96338 7.96429C8.96338 9.04913 9.84282 9.92857 10.9277 9.92857Z" fill="#222222"/>
<path d="M10.9277 9.92857C12.0125 9.92857 12.8919 9.04913 12.8919 7.96429C12.8919 6.87944 12.0125 6 10.9277 6C9.84282 6 8.96338 6.87944 8.96338 7.96429C8.96338 9.04913 9.84282 9.92857 10.9277 9.92857Z" fill="#222222"/>
<path d="M14.8554 15.003C14.8349 13.6861 14.4246 12.4888 13.6952 11.6218C12.9701 10.7602 11.9873 10.2857 10.9277 10.2857C9.86803 10.2857 8.88527 10.7602 8.16011 11.6218C7.43141 12.4878 7.02143 13.6835 7 14.9987C7.41205 15.2051 9.11719 16 10.9277 16C12.8854 16 14.4733 15.2098 14.8554 15.003ZM12.8919 7.96429C12.8919 9.04913 12.0125 9.92857 10.9277 9.92857C9.84282 9.92857 8.96338 9.04913 8.96338 7.96429C8.96338 6.87944 9.84282 6 10.9277 6C12.0125 6 12.8919 6.87944 12.8919 7.96429Z" stroke="#222222" stroke-width="1.5"/>
<rect x="1.08887" y="1" width="19" height="19" rx="9.5" stroke="#222222"/>
</svg>
