<svg width="21" height="21" viewBox="0 0 21 21" fill="none" xmlns="http://www.w3.org/2000/svg">
<path fill-rule="evenodd" clip-rule="evenodd" d="M8.65822 8.33939V8.34166H7.22705C7.10438 8.33939 7.00215 8.43707 6.99988 8.55974V13.8664C6.99988 14.4934 7.50874 15 8.13573 15H12.8609C13.4878 15 13.9967 14.4934 13.9967 13.8664V8.56429C13.9967 8.44162 13.8967 8.34166 13.7741 8.34166H12.4519V8.33939H11.9976V8.34166H9.11255V8.33939H8.65822Z" fill="#222222" stroke="#222222"/>
<path d="M12.2248 7.86234C12.3502 7.86234 12.4519 7.76063 12.4519 7.63517V6.89005C12.4519 5.84734 11.5978 5 10.5551 5C9.51236 5 8.6582 5.84734 8.6582 6.89005V7.63517C8.6582 7.76063 8.75991 7.86234 8.88537 7.86234V7.86234C9.01083 7.86234 9.11254 7.76063 9.11254 7.63517V6.89005C9.11254 6.09723 9.76225 5.45434 10.5551 5.45434C11.3479 5.45434 11.9976 6.09723 11.9976 6.89005V7.63517C11.9976 7.76063 12.0993 7.86234 12.2248 7.86234V7.86234Z" fill="#222222" stroke="black" stroke-width="0.5"/>
<rect x="1.08887" y="1" width="19" height="19" rx="9.5" stroke="#222222"/>
</svg>
