<svg width="21" height="21" viewBox="0 0 21 21" fill="none" xmlns="http://www.w3.org/2000/svg">
<path d="M13.8451 16C14.4964 16 15.0262 15.4702 15.0262 14.8189V13.2441C15.0262 13.0745 14.9178 12.9242 14.7571 12.8708L12.4004 12.0834C12.2851 12.0445 12.159 12.0622 12.0575 12.1291L11.0556 12.7969C9.99441 12.291 8.73528 11.0318 8.22929 9.97066L8.89711 8.96871C8.96438 8.86759 8.98131 8.7411 8.94286 8.62577L8.15546 6.26911C8.10205 6.10843 7.95171 6 7.78215 6H6.1811C5.52982 6 5 6.52428 5 7.17556C5 11.7116 9.30913 16 13.8451 16V16Z" fill="#222222"/>
<rect x="1.08887" y="1" width="19" height="19" rx="9.5" stroke="#222222"/>
</svg>
