<svg width="21" height="21" viewBox="0 0 21 21" fill="none" xmlns="http://www.w3.org/2000/svg">
<path d="M10.7665 5.43728L10.7665 5.43726C10.712 5.38756 10.6331 5.38762 10.5787 5.43721L10.5786 5.43726L5.8582 9.73849C5.8582 9.73849 5.8582 9.73849 5.8582 9.73849L10.7665 5.43728ZM10.7665 5.43728L15.4869 9.73845C15.4869 9.73846 15.4869 9.73847 15.4869 9.73847C15.5308 9.77848 15.5445 9.8367 15.5231 9.89217C15.5016 9.9474 15.4523 9.9811 15.393 9.9811C14.7557 9.9811 14.239 10.4978 14.239 11.1352V14.6H11.8329V12.8343C11.8329 12.1935 11.3134 11.674 10.6726 11.674C10.0318 11.674 9.51228 12.1935 9.51228 12.8343V14.6H7.10612V11.135C7.10612 10.4977 6.58949 9.9811 5.95219 9.9811C5.89282 9.9811 5.84353 9.94734 5.82208 9.892L10.7665 5.43728Z" fill="#444444" stroke="#222222" stroke-width="0.8"/>
<rect x="1.08887" y="1" width="19" height="19" rx="9.5" stroke="#222222"/>
</svg>
