<svg viewBox="0 0 1206 306" fill="none" xmlns="http://www.w3.org/2000/svg">
<g opacity="0.02">
<path d="M30.4 2.7L27.7 5.4L25 2.7L27.7 0L30.4 2.7ZM30.4 15.2L27.7 17.9L12.5 2.7L15.2 0L30.4 15.2ZM30.4 27.7L27.7 30.4L0 2.7L2.7 0L30.4 27.7ZM30.4 40.2L27.7 42.9L0 15.2L2.7 12.5L30.4 40.2ZM30.4 52.7L27.7 55.4L0 27.7L2.7 25L30.4 52.7ZM30.4 65.2L27.7 67.9L0 40.2L2.7 37.5L30.4 65.2ZM30.4 77.7L27.7 80.4L0 52.7L2.7 50L30.4 77.7ZM30.4 90.2L27.7 92.9L0 65.2L2.7 62.5L30.4 90.2ZM30.4 102.7L27.7 105.4L0 77.7L2.7 75L30.4 102.7ZM17.9 102.7L15.2 105.4L0 90.2L2.7 87.5L17.9 102.7ZM5.4 102.7L2.7 105.4L0 102.7L2.7 100L5.4 102.7Z" fill="black"/>
<path d="M130.4 2.7L127.7 5.4L125 2.7L127.7 0L130.4 2.7ZM130.4 15.2L127.7 17.9L112.5 2.7L115.2 0L130.4 15.2ZM55.4 2.7L52.7 5.4L50 2.7L52.7 0L55.4 2.7ZM130.4 77.7L127.7 80.4L125 77.7L127.7 75L130.4 77.7ZM67.9 2.7L52.7 17.9L37.5 2.7L40.2 0L52.7 12.5L65.2 0L67.9 2.7ZM130.4 27.7L80.4 77.7L105.4 102.7L102.7 105.4L75 77.7L125 27.7L102.7 5.4L65.2 42.9L62.5 40.2L102.7 0L130.4 27.7ZM130.4 90.2L127.7 92.9L112.5 77.7L127.7 62.5L130.4 65.2L117.9 77.7L130.4 90.2ZM80.4 2.7L52.7 30.4L25 2.7L27.7 0L52.7 25L77.7 0L80.4 2.7ZM130.4 40.2L92.9 77.7L117.9 102.7L115.2 105.4L87.5 77.7L127.7 37.5L130.4 40.2ZM130.4 102.7L127.7 105.4L100 77.7L127.7 50L130.4 52.7L105.4 77.7L130.4 102.7ZM92.9 2.7L55.4 40.2L67.9 52.7L65.2 55.4L25 15.2L27.7 12.5L52.7 37.5L90.2 0L92.9 2.7ZM117.9 27.7L67.9 77.7L92.9 102.7L90.2 105.4L65.2 80.4L40.2 105.4L37.5 102.7L112.5 27.7L102.7 17.9L71.5 49.2L68.7 46.4L102.7 12.5L117.9 27.7ZM105.4 27.7L27.7 105.4L25 102.7L62.5 65.2L25 27.7L27.7 25L65.2 62.5L102.7 25L105.4 27.7ZM55.4 65.2L27.7 92.9L25 90.2L50 65.2L25 40.2L27.7 37.5L55.4 65.2ZM80.4 102.7L77.7 105.4L65.2 92.9L52.7 105.4L50 102.7L65.2 87.5L80.4 102.7ZM42.9 65.2L27.7 80.4L25 77.7L37.5 65.2L25 52.7L27.7 50L42.9 65.2ZM30.4 65.2L27.7 67.9L25 65.2L27.7 62.5L30.4 65.2ZM67.9 102.7L65.2 105.4L62.5 102.7L65.2 100L67.9 102.7Z" fill="black"/>
<path d="M230.4 2.7L227.7 5.4L225 2.7L227.7 0L230.4 2.7ZM230.4 15.2L227.7 17.9L212.5 2.7L215.2 0L230.4 15.2ZM230.4 27.7L227.7 30.4L200 2.7L202.7 0L230.4 27.7ZM230.4 40.2L215.2 55.4L212.5 52.7L225 40.2L190.2 5.4L177.7 17.9L175 15.2L190.2 0L230.4 40.2ZM230.4 52.7L215.2 67.9L200 52.7L212.5 40.2L190.2 17.9L177.7 30.4L162.5 15.2L177.7 0L180.4 2.7L167.9 15.2L177.7 25L190.2 12.5L217.9 40.2L205.4 52.7L215.2 62.5L227.7 50L230.4 52.7ZM155.4 2.7L152.7 5.4L150 2.7L152.7 0L155.4 2.7ZM230.4 65.2L215.2 80.4L187.5 52.7L200 40.2L190.2 30.4L155.4 65.2L165.2 75L177.7 62.5L205.4 90.2L190.2 105.4L187.5 102.7L200 90.2L177.7 67.9L165.2 80.4L150 65.2L175 40.2L137.5 2.7L140.2 0L152.7 12.5L165.2 0L167.9 2.7L155.4 15.2L177.7 37.5L190.2 25L205.4 40.2L192.9 52.7L215.2 75L227.7 62.5L230.4 65.2ZM230.4 77.7L202.7 105.4L200 102.7L212.5 90.2L177.7 55.4L165.2 67.9L162.5 65.2L190.2 37.5L192.9 40.2L180.4 52.7L215.2 87.5L227.7 75L230.4 77.7ZM230.4 90.2L215.2 105.4L212.5 102.7L227.7 87.5L230.4 90.2ZM230.4 102.7L227.7 105.4L225 102.7L227.7 100L230.4 102.7ZM155.4 40.2L152.7 42.9L125 15.2L127.7 12.5L155.4 40.2ZM192.9 90.2L177.7 105.4L175 102.7L187.5 90.2L177.7 80.4L165.2 92.9L137.5 65.2L162.5 40.2L125 2.7L127.7 0L167.9 40.2L142.9 65.2L165.2 87.5L177.7 75L192.9 90.2ZM142.9 40.2L127.7 55.4L125 52.7L137.5 40.2L125 27.7L127.7 25L142.9 40.2ZM130.4 40.2L127.7 42.9L125 40.2L127.7 37.5L130.4 40.2ZM180.4 90.2L165.2 105.4L125 65.2L146.5 43.7L149.2 46.4L130.4 65.2L165.2 100L177.7 87.5L180.4 90.2ZM155.4 102.7L152.7 105.4L125 77.7L127.7 75L155.4 102.7ZM142.9 102.7L140.2 105.4L125 90.2L127.7 87.5L142.9 102.7ZM130.4 102.7L127.7 105.4L125 102.7L127.7 100L130.4 102.7Z" fill="black"/>
<path d="M330.4 2.7L327.7 5.4L325 2.7L327.7 0L330.4 2.7ZM330.4 15.2L327.7 17.9L312.5 2.7L315.2 0L330.4 15.2ZM330.4 27.7L327.7 30.4L300 2.7L302.7 0L330.4 27.7ZM330.4 40.2L327.7 42.9L287.5 2.7L290.2 0L330.4 40.2ZM330.4 52.7L327.7 55.4L275 2.7L277.7 0L330.4 52.7ZM330.4 65.2L327.7 67.9L265.2 5.4L242.9 27.7L255.4 40.2L234 61.7L231.2 58.9L250 40.2L225 15.2L227.7 12.5L240.2 25L265.2 0L330.4 65.2ZM242.9 2.7L240.2 5.4L237.5 2.7L240.2 0L242.9 2.7ZM330.4 90.2L327.7 92.9L262.5 27.7L265.2 25L330.4 90.2ZM255.4 2.7L240.2 17.9L225 2.7L227.7 0L240.2 12.5L252.7 0L255.4 2.7ZM330.4 77.7L327.7 80.4L265.2 17.9L255.4 27.7L267.9 40.2L242.9 65.2L255.4 77.7L240.2 92.9L225 77.7L227.7 75L240.2 87.5L250 77.7L237.5 65.2L262.5 40.2L250 27.7L265.2 12.5L330.4 77.7ZM330.4 102.7L327.7 105.4L277.7 55.4L267.9 65.2L305.4 102.7L302.7 105.4L262.5 65.2L277.7 50L330.4 102.7ZM317.9 102.7L315.2 105.4L275 65.2L277.7 62.5L317.9 102.7ZM242.9 40.2L227.7 55.4L225 52.7L237.5 40.2L225 27.7L227.7 25L242.9 40.2ZM230.4 40.2L227.7 42.9L225 40.2L227.7 37.5L230.4 40.2ZM292.9 102.7L290.2 105.4L265.2 80.4L240.2 105.4L225 90.2L227.7 87.5L240.2 100L262.5 77.7L250 65.2L271.5 43.7L274.2 46.4L255.4 65.2L292.9 102.7ZM280.4 102.7L277.7 105.4L265.2 92.9L252.7 105.4L250 102.7L265.2 87.5L280.4 102.7ZM242.9 77.7L240.2 80.4L225 65.2L227.7 62.5L242.9 77.7ZM267.9 102.7L265.2 105.4L262.5 102.7L265.2 100L267.9 102.7ZM230.4 102.7L227.7 105.4L225 102.7L227.7 100L230.4 102.7Z" fill="black"/>
<path d="M355.4 2.7L352.7 5.4L350 2.7L352.7 0L355.4 2.7ZM355.4 15.2L352.7 17.9L337.5 2.7L340.2 0L355.4 15.2ZM355.4 27.7L352.7 30.4L325 2.7L327.7 0L355.4 27.7ZM355.4 40.2L352.7 42.9L325 15.2L327.7 12.5L355.4 40.2ZM355.4 52.7L352.7 55.4L325 27.7L327.7 25L355.4 52.7ZM355.4 65.2L352.7 67.9L325 40.2L327.7 37.5L355.4 65.2ZM355.4 77.7L352.7 80.4L325 52.7L327.7 50L355.4 77.7ZM355.4 90.2L352.7 92.9L325 65.2L327.7 62.5L355.4 90.2ZM355.4 102.7L352.7 105.4L325 77.7L327.7 75L355.4 102.7ZM342.9 102.7L340.2 105.4L325 90.2L327.7 87.5L342.9 102.7ZM330.4 102.7L327.7 105.4L325 102.7L327.7 100L330.4 102.7Z" fill="black"/>
<path d="M455.4 2.7L452.7 5.4L450 2.7L452.7 0L455.4 2.7ZM455.4 15.2L452.7 17.9L437.5 2.7L440.2 0L455.4 15.2ZM380.4 2.7L377.7 5.4L375 2.7L377.7 0L380.4 2.7ZM455.4 77.7L452.7 80.4L450 77.7L452.7 75L455.4 77.7ZM392.9 2.7L377.7 17.9L362.5 2.7L365.2 0L377.7 12.5L390.2 0L392.9 2.7ZM455.4 27.7L405.4 77.7L430.4 102.7L427.7 105.4L400 77.7L450 27.7L427.7 5.4L390.2 42.9L387.5 40.2L427.7 0L455.4 27.7ZM455.4 90.2L452.7 92.9L437.5 77.7L452.7 62.5L455.4 65.2L442.9 77.7L455.4 90.2ZM405.4 2.7L377.7 30.4L350 2.7L352.7 0L377.7 25L402.7 0L405.4 2.7ZM455.4 40.2L417.9 77.7L442.9 102.7L440.2 105.4L412.5 77.7L452.7 37.5L455.4 40.2ZM455.4 102.7L452.7 105.4L425 77.7L452.7 50L455.4 52.7L430.4 77.7L455.4 102.7ZM417.9 2.7L380.4 40.2L392.9 52.7L390.2 55.4L350 15.2L352.7 12.5L377.7 37.5L415.2 0L417.9 2.7ZM442.9 27.7L392.9 77.7L417.9 102.7L415.2 105.4L390.2 80.4L365.2 105.4L362.5 102.7L437.5 27.7L427.7 17.9L396.5 49.2L393.7 46.4L427.7 12.5L442.9 27.7ZM430.4 27.7L352.7 105.4L350 102.7L387.5 65.2L350 27.7L352.7 25L390.2 62.5L427.7 25L430.4 27.7ZM380.4 65.2L352.7 92.9L350 90.2L375 65.2L350 40.2L352.7 37.5L380.4 65.2ZM405.4 102.7L402.7 105.4L390.2 92.9L377.7 105.4L375 102.7L390.2 87.5L405.4 102.7ZM367.9 65.2L352.7 80.4L350 77.7L362.5 65.2L350 52.7L352.7 50L367.9 65.2ZM355.4 65.2L352.7 67.9L350 65.2L352.7 62.5L355.4 65.2ZM392.9 102.7L390.2 105.4L387.5 102.7L390.2 100L392.9 102.7Z" fill="black"/>
<path d="M555.4 2.7L552.7 5.4L550 2.7L552.7 0L555.4 2.7ZM555.4 15.2L552.7 17.9L537.5 2.7L540.2 0L555.4 15.2ZM555.4 27.7L552.7 30.4L525 2.7L527.7 0L555.4 27.7ZM555.4 40.2L540.2 55.4L537.5 52.7L550 40.2L515.2 5.4L502.7 17.9L500 15.2L515.2 0L555.4 40.2ZM555.4 52.7L540.2 67.9L525 52.7L537.5 40.2L515.2 17.9L502.7 30.4L487.5 15.2L502.7 0L505.4 2.7L492.9 15.2L502.7 25L515.2 12.5L542.9 40.2L530.4 52.7L540.2 62.5L552.7 50L555.4 52.7ZM480.4 2.7L477.7 5.4L475 2.7L477.7 0L480.4 2.7ZM555.4 65.2L540.2 80.4L512.5 52.7L525 40.2L515.2 30.4L480.4 65.2L490.2 75L502.7 62.5L530.4 90.2L515.2 105.4L512.5 102.7L525 90.2L502.7 67.9L490.2 80.4L475 65.2L500 40.2L462.5 2.7L465.2 0L477.7 12.5L490.2 0L492.9 2.7L480.4 15.2L502.7 37.5L515.2 25L530.4 40.2L517.9 52.7L540.2 75L552.7 62.5L555.4 65.2ZM555.4 77.7L527.7 105.4L525 102.7L537.5 90.2L502.7 55.4L490.2 67.9L487.5 65.2L515.2 37.5L517.9 40.2L505.4 52.7L540.2 87.5L552.7 75L555.4 77.7ZM555.4 90.2L540.2 105.4L537.5 102.7L552.7 87.5L555.4 90.2ZM555.4 102.7L552.7 105.4L550 102.7L552.7 100L555.4 102.7ZM480.4 40.2L477.7 42.9L450 15.2L452.7 12.5L480.4 40.2ZM517.9 90.2L502.7 105.4L500 102.7L512.5 90.2L502.7 80.4L490.2 92.9L462.5 65.2L487.5 40.2L450 2.7L452.7 0L492.9 40.2L467.9 65.2L490.2 87.5L502.7 75L517.9 90.2ZM467.9 40.2L452.7 55.4L450 52.7L462.5 40.2L450 27.7L452.7 25L467.9 40.2ZM455.4 40.2L452.7 42.9L450 40.2L452.7 37.5L455.4 40.2ZM505.4 90.2L490.2 105.4L450 65.2L471.5 43.7L474.2 46.4L455.4 65.2L490.2 100L502.7 87.5L505.4 90.2ZM480.4 102.7L477.7 105.4L450 77.7L452.7 75L480.4 102.7ZM467.9 102.7L465.2 105.4L450 90.2L452.7 87.5L467.9 102.7ZM455.4 102.7L452.7 105.4L450 102.7L452.7 100L455.4 102.7Z" fill="black"/>
<path d="M655.4 2.7L652.7 5.4L650 2.7L652.7 0L655.4 2.7ZM655.4 15.2L652.7 17.9L637.5 2.7L640.2 0L655.4 15.2ZM655.4 27.7L652.7 30.4L625 2.7L627.7 0L655.4 27.7ZM655.4 40.2L652.7 42.9L612.5 2.7L615.2 0L655.4 40.2ZM655.4 52.7L652.7 55.4L600 2.7L602.7 0L655.4 52.7ZM655.4 65.2L652.7 67.9L590.2 5.4L567.9 27.7L580.4 40.2L559 61.7L556.2 58.9L575 40.2L550 15.2L552.7 12.5L565.2 25L590.2 0L655.4 65.2ZM567.9 2.7L565.2 5.4L562.5 2.7L565.2 0L567.9 2.7ZM655.4 90.2L652.7 92.9L587.5 27.7L590.2 25L655.4 90.2ZM580.4 2.7L565.2 17.9L550 2.7L552.7 0L565.2 12.5L577.7 0L580.4 2.7ZM655.4 77.7L652.7 80.4L590.2 17.9L580.4 27.7L592.9 40.2L567.9 65.2L580.4 77.7L565.2 92.9L550 77.7L552.7 75L565.2 87.5L575 77.7L562.5 65.2L587.5 40.2L575 27.7L590.2 12.5L655.4 77.7ZM655.4 102.7L652.7 105.4L602.7 55.4L592.9 65.2L630.4 102.7L627.7 105.4L587.5 65.2L602.7 50L655.4 102.7ZM642.9 102.7L640.2 105.4L600 65.2L602.7 62.5L642.9 102.7ZM567.9 40.2L552.7 55.4L550 52.7L562.5 40.2L550 27.7L552.7 25L567.9 40.2ZM555.4 40.2L552.7 42.9L550 40.2L552.7 37.5L555.4 40.2ZM617.9 102.7L615.2 105.4L590.2 80.4L565.2 105.4L550 90.2L552.7 87.5L565.2 100L587.5 77.7L575 65.2L596.5 43.7L599.2 46.4L580.4 65.2L617.9 102.7ZM605.4 102.7L602.7 105.4L590.2 92.9L577.7 105.4L575 102.7L590.2 87.5L605.4 102.7ZM567.9 77.7L565.2 80.4L550 65.2L552.7 62.5L567.9 77.7ZM592.9 102.7L590.2 105.4L587.5 102.7L590.2 100L592.9 102.7ZM555.4 102.7L552.7 105.4L550 102.7L552.7 100L555.4 102.7Z" fill="black"/>
<path d="M680.4 2.7L677.7 5.4L675 2.7L677.7 0L680.4 2.7ZM680.4 15.2L677.7 17.9L662.5 2.7L665.2 0L680.4 15.2ZM680.4 27.7L677.7 30.4L650 2.7L652.7 0L680.4 27.7ZM680.4 40.2L677.7 42.9L650 15.2L652.7 12.5L680.4 40.2ZM680.4 52.7L677.7 55.4L650 27.7L652.7 25L680.4 52.7ZM680.4 65.2L677.7 67.9L650 40.2L652.7 37.5L680.4 65.2ZM680.4 77.7L677.7 80.4L650 52.7L652.7 50L680.4 77.7ZM680.4 90.2L677.7 92.9L650 65.2L652.7 62.5L680.4 90.2ZM680.4 102.7L677.7 105.4L650 77.7L652.7 75L680.4 102.7ZM667.9 102.7L665.2 105.4L650 90.2L652.7 87.5L667.9 102.7ZM655.4 102.7L652.7 105.4L650 102.7L652.7 100L655.4 102.7Z" fill="black"/>
<path d="M780.4 2.7L777.7 5.4L775 2.7L777.7 0L780.4 2.7ZM780.4 15.2L777.7 17.9L762.5 2.7L765.2 0L780.4 15.2ZM705.4 2.7L702.7 5.4L700 2.7L702.7 0L705.4 2.7ZM780.4 77.7L777.7 80.4L775 77.7L777.7 75L780.4 77.7ZM717.9 2.7L702.7 17.9L687.5 2.7L690.2 0L702.7 12.5L715.2 0L717.9 2.7ZM780.4 27.7L730.4 77.7L755.4 102.7L752.7 105.4L725 77.7L775 27.7L752.7 5.4L715.2 42.9L712.5 40.2L752.7 0L780.4 27.7ZM780.4 90.2L777.7 92.9L762.5 77.7L777.7 62.5L780.4 65.2L767.9 77.7L780.4 90.2ZM730.4 2.7L702.7 30.4L675 2.7L677.7 0L702.7 25L727.7 0L730.4 2.7ZM780.4 40.2L742.9 77.7L767.9 102.7L765.2 105.4L737.5 77.7L777.7 37.5L780.4 40.2ZM780.4 102.7L777.7 105.4L750 77.7L777.7 50L780.4 52.7L755.4 77.7L780.4 102.7ZM742.9 2.7L705.4 40.2L717.9 52.7L715.2 55.4L675 15.2L677.7 12.5L702.7 37.5L740.2 0L742.9 2.7ZM767.9 27.7L717.9 77.7L742.9 102.7L740.2 105.4L715.2 80.4L690.2 105.4L687.5 102.7L762.5 27.7L752.7 17.9L721.5 49.2L718.7 46.4L752.7 12.5L767.9 27.7ZM755.4 27.7L677.7 105.4L675 102.7L712.5 65.2L675 27.7L677.7 25L715.2 62.5L752.7 25L755.4 27.7ZM705.4 65.2L677.7 92.9L675 90.2L700 65.2L675 40.2L677.7 37.5L705.4 65.2ZM730.4 102.7L727.7 105.4L715.2 92.9L702.7 105.4L700 102.7L715.2 87.5L730.4 102.7ZM692.9 65.2L677.7 80.4L675 77.7L687.5 65.2L675 52.7L677.7 50L692.9 65.2ZM680.4 65.2L677.7 67.9L675 65.2L677.7 62.5L680.4 65.2ZM717.9 102.7L715.2 105.4L712.5 102.7L715.2 100L717.9 102.7Z" fill="black"/>
<path d="M880.4 2.7L877.7 5.4L875 2.7L877.7 0L880.4 2.7ZM880.4 15.2L877.7 17.9L862.5 2.7L865.2 0L880.4 15.2ZM880.4 27.7L877.7 30.4L850 2.7L852.7 0L880.4 27.7ZM880.4 40.2L865.2 55.4L862.5 52.7L875 40.2L840.2 5.4L827.7 17.9L825 15.2L840.2 0L880.4 40.2ZM880.4 52.7L865.2 67.9L850 52.7L862.5 40.2L840.2 17.9L827.7 30.4L812.5 15.2L827.7 0L830.4 2.7L817.9 15.2L827.7 25L840.2 12.5L867.9 40.2L855.4 52.7L865.2 62.5L877.7 50L880.4 52.7ZM805.4 2.7L802.7 5.4L800 2.7L802.7 0L805.4 2.7ZM880.4 65.2L865.2 80.4L837.5 52.7L850 40.2L840.2 30.4L805.4 65.2L815.2 75L827.7 62.5L855.4 90.2L840.2 105.4L837.5 102.7L850 90.2L827.7 67.9L815.2 80.4L800 65.2L825 40.2L787.5 2.7L790.2 0L802.7 12.5L815.2 0L817.9 2.7L805.4 15.2L827.7 37.5L840.2 25L855.4 40.2L842.9 52.7L865.2 75L877.7 62.5L880.4 65.2ZM880.4 77.7L852.7 105.4L850 102.7L862.5 90.2L827.7 55.4L815.2 67.9L812.5 65.2L840.2 37.5L842.9 40.2L830.4 52.7L865.2 87.5L877.7 75L880.4 77.7ZM880.4 90.2L865.2 105.4L862.5 102.7L877.7 87.5L880.4 90.2ZM880.4 102.7L877.7 105.4L875 102.7L877.7 100L880.4 102.7ZM805.4 40.2L802.7 42.9L775 15.2L777.7 12.5L805.4 40.2ZM842.9 90.2L827.7 105.4L825 102.7L837.5 90.2L827.7 80.4L815.2 92.9L787.5 65.2L812.5 40.2L775 2.7L777.7 0L817.9 40.2L792.9 65.2L815.2 87.5L827.7 75L842.9 90.2ZM792.9 40.2L777.7 55.4L775 52.7L787.5 40.2L775 27.7L777.7 25L792.9 40.2ZM780.4 40.2L777.7 42.9L775 40.2L777.7 37.5L780.4 40.2ZM830.4 90.2L815.2 105.4L775 65.2L796.5 43.7L799.2 46.4L780.4 65.2L815.2 100L827.7 87.5L830.4 90.2ZM805.4 102.7L802.7 105.4L775 77.7L777.7 75L805.4 102.7ZM792.9 102.7L790.2 105.4L775 90.2L777.7 87.5L792.9 102.7ZM780.4 102.7L777.7 105.4L775 102.7L777.7 100L780.4 102.7Z" fill="black"/>
<path d="M980.4 2.7L977.7 5.4L975 2.7L977.7 0L980.4 2.7ZM980.4 15.2L977.7 17.9L962.5 2.7L965.2 0L980.4 15.2ZM980.4 27.7L977.7 30.4L950 2.7L952.7 0L980.4 27.7ZM980.4 40.2L977.7 42.9L937.5 2.7L940.2 0L980.4 40.2ZM980.4 52.7L977.7 55.4L925 2.7L927.7 0L980.4 52.7ZM980.4 65.2L977.7 67.9L915.2 5.4L892.9 27.7L905.4 40.2L884 61.7L881.2 58.9L900 40.2L875 15.2L877.7 12.5L890.2 25L915.2 0L980.4 65.2ZM892.9 2.7L890.2 5.4L887.5 2.7L890.2 0L892.9 2.7ZM980.4 90.2L977.7 92.9L912.5 27.7L915.2 25L980.4 90.2ZM905.4 2.7L890.2 17.9L875 2.7L877.7 0L890.2 12.5L902.7 0L905.4 2.7ZM980.4 77.7L977.7 80.4L915.2 17.9L905.4 27.7L917.9 40.2L892.9 65.2L905.4 77.7L890.2 92.9L875 77.7L877.7 75L890.2 87.5L900 77.7L887.5 65.2L912.5 40.2L900 27.7L915.2 12.5L980.4 77.7ZM980.4 102.7L977.7 105.4L927.7 55.4L917.9 65.2L955.4 102.7L952.7 105.4L912.5 65.2L927.7 50L980.4 102.7ZM967.9 102.7L965.2 105.4L925 65.2L927.7 62.5L967.9 102.7ZM892.9 40.2L877.7 55.4L875 52.7L887.5 40.2L875 27.7L877.7 25L892.9 40.2ZM880.4 40.2L877.7 42.9L875 40.2L877.7 37.5L880.4 40.2ZM942.9 102.7L940.2 105.4L915.2 80.4L890.2 105.4L875 90.2L877.7 87.5L890.2 100L912.5 77.7L900 65.2L921.5 43.7L924.2 46.4L905.4 65.2L942.9 102.7ZM930.4 102.7L927.7 105.4L915.2 92.9L902.7 105.4L900 102.7L915.2 87.5L930.4 102.7ZM892.9 77.7L890.2 80.4L875 65.2L877.7 62.5L892.9 77.7ZM917.9 102.7L915.2 105.4L912.5 102.7L915.2 100L917.9 102.7ZM880.4 102.7L877.7 105.4L875 102.7L877.7 100L880.4 102.7Z" fill="black"/>
<path d="M1005.4 2.7L1002.7 5.4L1000 2.7L1002.7 0L1005.4 2.7ZM1005.4 15.2L1002.7 17.9L987.5 2.7L990.2 0L1005.4 15.2ZM1005.4 27.7L1002.7 30.4L975 2.7L977.7 0L1005.4 27.7ZM1005.4 40.2L1002.7 42.9L975 15.2L977.7 12.5L1005.4 40.2ZM1005.4 52.7L1002.7 55.4L975 27.7L977.7 25L1005.4 52.7ZM1005.4 65.2L1002.7 67.9L975 40.2L977.7 37.5L1005.4 65.2ZM1005.4 77.7L1002.7 80.4L975 52.7L977.7 50L1005.4 77.7ZM1005.4 90.2L1002.7 92.9L975 65.2L977.7 62.5L1005.4 90.2ZM1005.4 102.7L1002.7 105.4L975 77.7L977.7 75L1005.4 102.7ZM992.9 102.7L990.2 105.4L975 90.2L977.7 87.5L992.9 102.7ZM980.4 102.7L977.7 105.4L975 102.7L977.7 100L980.4 102.7Z" fill="black"/>
<path d="M1105.4 2.7L1102.7 5.4L1100 2.7L1102.7 0L1105.4 2.7ZM1105.4 15.2L1102.7 17.9L1087.5 2.7L1090.2 0L1105.4 15.2ZM1030.4 2.7L1027.7 5.4L1025 2.7L1027.7 0L1030.4 2.7ZM1105.4 77.7L1102.7 80.4L1100 77.7L1102.7 75L1105.4 77.7ZM1042.9 2.7L1027.7 17.9L1012.5 2.7L1015.2 0L1027.7 12.5L1040.2 0L1042.9 2.7ZM1105.4 27.7L1055.4 77.7L1080.4 102.7L1077.7 105.4L1050 77.7L1100 27.7L1077.7 5.4L1040.2 42.9L1037.5 40.2L1077.7 0L1105.4 27.7ZM1105.4 90.2L1102.7 92.9L1087.5 77.7L1102.7 62.5L1105.4 65.2L1092.9 77.7L1105.4 90.2ZM1055.4 2.7L1027.7 30.4L1000 2.7L1002.7 0L1027.7 25L1052.7 0L1055.4 2.7ZM1105.4 40.2L1067.9 77.7L1092.9 102.7L1090.2 105.4L1062.5 77.7L1102.7 37.5L1105.4 40.2ZM1105.4 102.7L1102.7 105.4L1075 77.7L1102.7 50L1105.4 52.7L1080.4 77.7L1105.4 102.7ZM1067.9 2.7L1030.4 40.2L1042.9 52.7L1040.2 55.4L1000 15.2L1002.7 12.5L1027.7 37.5L1065.2 0L1067.9 2.7ZM1092.9 27.7L1042.9 77.7L1067.9 102.7L1065.2 105.4L1040.2 80.4L1015.2 105.4L1012.5 102.7L1087.5 27.7L1077.7 17.9L1046.5 49.2L1043.7 46.4L1077.7 12.5L1092.9 27.7ZM1080.4 27.7L1002.7 105.4L1000 102.7L1037.5 65.2L1000 27.7L1002.7 25L1040.2 62.5L1077.7 25L1080.4 27.7ZM1030.4 65.2L1002.7 92.9L1000 90.2L1025 65.2L1000 40.2L1002.7 37.5L1030.4 65.2ZM1055.4 102.7L1052.7 105.4L1040.2 92.9L1027.7 105.4L1025 102.7L1040.2 87.5L1055.4 102.7ZM1017.9 65.2L1002.7 80.4L1000 77.7L1012.5 65.2L1000 52.7L1002.7 50L1017.9 65.2ZM1005.4 65.2L1002.7 67.9L1000 65.2L1002.7 62.5L1005.4 65.2ZM1042.9 102.7L1040.2 105.4L1037.5 102.7L1040.2 100L1042.9 102.7Z" fill="black"/>
<path d="M1205.4 2.7L1202.7 5.4L1200 2.7L1202.7 0L1205.4 2.7ZM1205.4 15.2L1202.7 17.9L1187.5 2.7L1190.2 0L1205.4 15.2ZM1205.4 27.7L1202.7 30.4L1175 2.7L1177.7 0L1205.4 27.7ZM1205.4 40.2L1190.2 55.4L1187.5 52.7L1200 40.2L1165.2 5.4L1152.7 17.9L1150 15.2L1165.2 0L1205.4 40.2ZM1205.4 52.7L1190.2 67.9L1175 52.7L1187.5 40.2L1165.2 17.9L1152.7 30.4L1137.5 15.2L1152.7 0L1155.4 2.7L1142.9 15.2L1152.7 25L1165.2 12.5L1192.9 40.2L1180.4 52.7L1190.2 62.5L1202.7 50L1205.4 52.7ZM1130.4 2.7L1127.7 5.4L1125 2.7L1127.7 0L1130.4 2.7ZM1205.4 65.2L1190.2 80.4L1162.5 52.7L1175 40.2L1165.2 30.4L1130.4 65.2L1140.2 75L1152.7 62.5L1180.4 90.2L1165.2 105.4L1162.5 102.7L1175 90.2L1152.7 67.9L1140.2 80.4L1125 65.2L1150 40.2L1112.5 2.7L1115.2 0L1127.7 12.5L1140.2 0L1142.9 2.7L1130.4 15.2L1152.7 37.5L1165.2 25L1180.4 40.2L1167.9 52.7L1190.2 75L1202.7 62.5L1205.4 65.2ZM1205.4 77.7L1177.7 105.4L1175 102.7L1187.5 90.2L1152.7 55.4L1140.2 67.9L1137.5 65.2L1165.2 37.5L1167.9 40.2L1155.4 52.7L1190.2 87.5L1202.7 75L1205.4 77.7ZM1205.4 90.2L1190.2 105.4L1187.5 102.7L1202.7 87.5L1205.4 90.2ZM1205.4 102.7L1202.7 105.4L1200 102.7L1202.7 100L1205.4 102.7ZM1130.4 40.2L1127.7 42.9L1100 15.2L1102.7 12.5L1130.4 40.2ZM1167.9 90.2L1152.7 105.4L1150 102.7L1162.5 90.2L1152.7 80.4L1140.2 92.9L1112.5 65.2L1137.5 40.2L1100 2.7L1102.7 0L1142.9 40.2L1117.9 65.2L1140.2 87.5L1152.7 75L1167.9 90.2ZM1117.9 40.2L1102.7 55.4L1100 52.7L1112.5 40.2L1100 27.7L1102.7 25L1117.9 40.2ZM1105.4 40.2L1102.7 42.9L1100 40.2L1102.7 37.5L1105.4 40.2ZM1155.4 90.2L1140.2 105.4L1100 65.2L1121.5 43.7L1124.2 46.4L1105.4 65.2L1140.2 100L1152.7 87.5L1155.4 90.2ZM1130.4 102.7L1127.7 105.4L1100 77.7L1102.7 75L1130.4 102.7ZM1117.9 102.7L1115.2 105.4L1100 90.2L1102.7 87.5L1117.9 102.7ZM1105.4 102.7L1102.7 105.4L1100 102.7L1102.7 100L1105.4 102.7Z" fill="black"/>
<path d="M105.4 102.7L102.7 105.4L100 102.7L102.7 100L105.4 102.7ZM105.4 115.2L102.7 117.9L87.5 102.7L90.2 100L105.4 115.2ZM105.4 127.7L102.7 130.4L75 102.7L77.7 100L105.4 127.7ZM105.4 140.2L102.7 142.9L62.5 102.7L65.2 100L105.4 140.2ZM105.4 152.7L102.7 155.4L50 102.7L52.7 100L105.4 152.7ZM105.4 165.2L102.7 167.9L40.2 105.4L17.9 127.7L30.4 140.2L9 161.7L6.2 158.9L25 140.2L0 115.2L2.7 112.5L15.2 125L40.2 100L105.4 165.2ZM17.9 102.7L15.2 105.4L12.5 102.7L15.2 100L17.9 102.7ZM105.4 190.2L102.7 192.9L37.5 127.7L40.2 125L105.4 190.2ZM30.4 102.7L15.2 117.9L0 102.7L2.7 100L15.2 112.5L27.7 100L30.4 102.7ZM105.4 177.7L102.7 180.4L40.2 117.9L30.4 127.7L42.9 140.2L17.9 165.2L30.4 177.7L15.2 192.9L0 177.7L2.7 175L15.2 187.5L25 177.7L12.5 165.2L37.5 140.2L25 127.7L40.2 112.5L105.4 177.7ZM105.4 202.7L102.7 205.4L52.7 155.4L42.9 165.2L80.4 202.7L77.7 205.4L37.5 165.2L52.7 150L105.4 202.7ZM92.9 202.7L90.2 205.4L50 165.2L52.7 162.5L92.9 202.7ZM17.9 140.2L2.7 155.4L0 152.7L12.5 140.2L0 127.7L2.7 125L17.9 140.2ZM5.4 140.2L2.7 142.9L0 140.2L2.7 137.5L5.4 140.2ZM67.9 202.7L65.2 205.4L40.2 180.4L15.2 205.4L0 190.2L2.7 187.5L15.2 200L37.5 177.7L25 165.2L46.5 143.7L49.2 146.4L30.4 165.2L67.9 202.7ZM55.4 202.7L52.7 205.4L40.2 192.9L27.7 205.4L25 202.7L40.2 187.5L55.4 202.7ZM17.9 177.7L15.2 180.4L0 165.2L2.7 162.5L17.9 177.7ZM42.9 202.7L40.2 205.4L37.5 202.7L40.2 200L42.9 202.7ZM5.4 202.7L2.7 205.4L0 202.7L2.7 200L5.4 202.7Z" fill="black"/>
<path d="M130.4 102.7L127.7 105.4L125 102.7L127.7 100L130.4 102.7ZM130.4 115.2L127.7 117.9L112.5 102.7L115.2 100L130.4 115.2ZM130.4 127.7L127.7 130.4L100 102.7L102.7 100L130.4 127.7ZM130.4 140.2L127.7 142.9L100 115.2L102.7 112.5L130.4 140.2ZM130.4 152.7L127.7 155.4L100 127.7L102.7 125L130.4 152.7ZM130.4 165.2L127.7 167.9L100 140.2L102.7 137.5L130.4 165.2ZM130.4 177.7L127.7 180.4L100 152.7L102.7 150L130.4 177.7ZM130.4 190.2L127.7 192.9L100 165.2L102.7 162.5L130.4 190.2ZM130.4 202.7L127.7 205.4L100 177.7L102.7 175L130.4 202.7ZM117.9 202.7L115.2 205.4L100 190.2L102.7 187.5L117.9 202.7ZM105.4 202.7L102.7 205.4L100 202.7L102.7 200L105.4 202.7Z" fill="black"/>
<path d="M230.4 102.7L227.7 105.4L225 102.7L227.7 100L230.4 102.7ZM230.4 115.2L227.7 117.9L212.5 102.7L215.2 100L230.4 115.2ZM155.4 102.7L152.7 105.4L150 102.7L152.7 100L155.4 102.7ZM230.4 177.7L227.7 180.4L225 177.7L227.7 175L230.4 177.7ZM167.9 102.7L152.7 117.9L137.5 102.7L140.2 100L152.7 112.5L165.2 100L167.9 102.7ZM230.4 127.7L180.4 177.7L205.4 202.7L202.7 205.4L175 177.7L225 127.7L202.7 105.4L165.2 142.9L162.5 140.2L202.7 100L230.4 127.7ZM230.4 190.2L227.7 192.9L212.5 177.7L227.7 162.5L230.4 165.2L217.9 177.7L230.4 190.2ZM180.4 102.7L152.7 130.4L125 102.7L127.7 100L152.7 125L177.7 100L180.4 102.7ZM230.4 140.2L192.9 177.7L217.9 202.7L215.2 205.4L187.5 177.7L227.7 137.5L230.4 140.2ZM230.4 202.7L227.7 205.4L200 177.7L227.7 150L230.4 152.7L205.4 177.7L230.4 202.7ZM192.9 102.7L155.4 140.2L167.9 152.7L165.2 155.4L125 115.2L127.7 112.5L152.7 137.5L190.2 100L192.9 102.7ZM217.9 127.7L167.9 177.7L192.9 202.7L190.2 205.4L165.2 180.4L140.2 205.4L137.5 202.7L212.5 127.7L202.7 117.9L171.5 149.2L168.7 146.4L202.7 112.5L217.9 127.7ZM205.4 127.7L127.7 205.4L125 202.7L162.5 165.2L125 127.7L127.7 125L165.2 162.5L202.7 125L205.4 127.7ZM155.4 165.2L127.7 192.9L125 190.2L150 165.2L125 140.2L127.7 137.5L155.4 165.2ZM180.4 202.7L177.7 205.4L165.2 192.9L152.7 205.4L150 202.7L165.2 187.5L180.4 202.7ZM142.9 165.2L127.7 180.4L125 177.7L137.5 165.2L125 152.7L127.7 150L142.9 165.2ZM130.4 165.2L127.7 167.9L125 165.2L127.7 162.5L130.4 165.2ZM167.9 202.7L165.2 205.4L162.5 202.7L165.2 200L167.9 202.7Z" fill="black"/>
<path d="M330.4 102.7L327.7 105.4L325 102.7L327.7 100L330.4 102.7ZM330.4 115.2L327.7 117.9L312.5 102.7L315.2 100L330.4 115.2ZM330.4 127.7L327.7 130.4L300 102.7L302.7 100L330.4 127.7ZM330.4 140.2L315.2 155.4L312.5 152.7L325 140.2L290.2 105.4L277.7 117.9L275 115.2L290.2 100L330.4 140.2ZM330.4 152.7L315.2 167.9L300 152.7L312.5 140.2L290.2 117.9L277.7 130.4L262.5 115.2L277.7 100L280.4 102.7L267.9 115.2L277.7 125L290.2 112.5L317.9 140.2L305.4 152.7L315.2 162.5L327.7 150L330.4 152.7ZM255.4 102.7L252.7 105.4L250 102.7L252.7 100L255.4 102.7ZM330.4 165.2L315.2 180.4L287.5 152.7L300 140.2L290.2 130.4L255.4 165.2L265.2 175L277.7 162.5L305.4 190.2L290.2 205.4L287.5 202.7L300 190.2L277.7 167.9L265.2 180.4L250 165.2L275 140.2L237.5 102.7L240.2 100L252.7 112.5L265.2 100L267.9 102.7L255.4 115.2L277.7 137.5L290.2 125L305.4 140.2L292.9 152.7L315.2 175L327.7 162.5L330.4 165.2ZM330.4 177.7L302.7 205.4L300 202.7L312.5 190.2L277.7 155.4L265.2 167.9L262.5 165.2L290.2 137.5L292.9 140.2L280.4 152.7L315.2 187.5L327.7 175L330.4 177.7ZM330.4 190.2L315.2 205.4L312.5 202.7L327.7 187.5L330.4 190.2ZM330.4 202.7L327.7 205.4L325 202.7L327.7 200L330.4 202.7ZM255.4 140.2L252.7 142.9L225 115.2L227.7 112.5L255.4 140.2ZM292.9 190.2L277.7 205.4L275 202.7L287.5 190.2L277.7 180.4L265.2 192.9L237.5 165.2L262.5 140.2L225 102.7L227.7 100L267.9 140.2L242.9 165.2L265.2 187.5L277.7 175L292.9 190.2ZM242.9 140.2L227.7 155.4L225 152.7L237.5 140.2L225 127.7L227.7 125L242.9 140.2ZM230.4 140.2L227.7 142.9L225 140.2L227.7 137.5L230.4 140.2ZM280.4 190.2L265.2 205.4L225 165.2L246.5 143.7L249.2 146.4L230.4 165.2L265.2 200L277.7 187.5L280.4 190.2ZM255.4 202.7L252.7 205.4L225 177.7L227.7 175L255.4 202.7ZM242.9 202.7L240.2 205.4L225 190.2L227.7 187.5L242.9 202.7ZM230.4 202.7L227.7 205.4L225 202.7L227.7 200L230.4 202.7Z" fill="black"/>
<path d="M430.4 102.7L427.7 105.4L425 102.7L427.7 100L430.4 102.7ZM430.4 115.2L427.7 117.9L412.5 102.7L415.2 100L430.4 115.2ZM430.4 127.7L427.7 130.4L400 102.7L402.7 100L430.4 127.7ZM430.4 140.2L427.7 142.9L387.5 102.7L390.2 100L430.4 140.2ZM430.4 152.7L427.7 155.4L375 102.7L377.7 100L430.4 152.7ZM430.4 165.2L427.7 167.9L365.2 105.4L342.9 127.7L355.4 140.2L334 161.7L331.2 158.9L350 140.2L325 115.2L327.7 112.5L340.2 125L365.2 100L430.4 165.2ZM342.9 102.7L340.2 105.4L337.5 102.7L340.2 100L342.9 102.7ZM430.4 190.2L427.7 192.9L362.5 127.7L365.2 125L430.4 190.2ZM355.4 102.7L340.2 117.9L325 102.7L327.7 100L340.2 112.5L352.7 100L355.4 102.7ZM430.4 177.7L427.7 180.4L365.2 117.9L355.4 127.7L367.9 140.2L342.9 165.2L355.4 177.7L340.2 192.9L325 177.7L327.7 175L340.2 187.5L350 177.7L337.5 165.2L362.5 140.2L350 127.7L365.2 112.5L430.4 177.7ZM430.4 202.7L427.7 205.4L377.7 155.4L367.9 165.2L405.4 202.7L402.7 205.4L362.5 165.2L377.7 150L430.4 202.7ZM417.9 202.7L415.2 205.4L375 165.2L377.7 162.5L417.9 202.7ZM342.9 140.2L327.7 155.4L325 152.7L337.5 140.2L325 127.7L327.7 125L342.9 140.2ZM330.4 140.2L327.7 142.9L325 140.2L327.7 137.5L330.4 140.2ZM392.9 202.7L390.2 205.4L365.2 180.4L340.2 205.4L325 190.2L327.7 187.5L340.2 200L362.5 177.7L350 165.2L371.5 143.7L374.2 146.4L355.4 165.2L392.9 202.7ZM380.4 202.7L377.7 205.4L365.2 192.9L352.7 205.4L350 202.7L365.2 187.5L380.4 202.7ZM342.9 177.7L340.2 180.4L325 165.2L327.7 162.5L342.9 177.7ZM367.9 202.7L365.2 205.4L362.5 202.7L365.2 200L367.9 202.7ZM330.4 202.7L327.7 205.4L325 202.7L327.7 200L330.4 202.7Z" fill="black"/>
<path d="M455.4 102.7L452.7 105.4L450 102.7L452.7 100L455.4 102.7ZM455.4 115.2L452.7 117.9L437.5 102.7L440.2 100L455.4 115.2ZM455.4 127.7L452.7 130.4L425 102.7L427.7 100L455.4 127.7ZM455.4 140.2L452.7 142.9L425 115.2L427.7 112.5L455.4 140.2ZM455.4 152.7L452.7 155.4L425 127.7L427.7 125L455.4 152.7ZM455.4 165.2L452.7 167.9L425 140.2L427.7 137.5L455.4 165.2ZM455.4 177.7L452.7 180.4L425 152.7L427.7 150L455.4 177.7ZM455.4 190.2L452.7 192.9L425 165.2L427.7 162.5L455.4 190.2ZM455.4 202.7L452.7 205.4L425 177.7L427.7 175L455.4 202.7ZM442.9 202.7L440.2 205.4L425 190.2L427.7 187.5L442.9 202.7ZM430.4 202.7L427.7 205.4L425 202.7L427.7 200L430.4 202.7Z" fill="black"/>
<path d="M555.4 102.7L552.7 105.4L550 102.7L552.7 100L555.4 102.7ZM555.4 115.2L552.7 117.9L537.5 102.7L540.2 100L555.4 115.2ZM480.4 102.7L477.7 105.4L475 102.7L477.7 100L480.4 102.7ZM555.4 177.7L552.7 180.4L550 177.7L552.7 175L555.4 177.7ZM492.9 102.7L477.7 117.9L462.5 102.7L465.2 100L477.7 112.5L490.2 100L492.9 102.7ZM555.4 127.7L505.4 177.7L530.4 202.7L527.7 205.4L500 177.7L550 127.7L527.7 105.4L490.2 142.9L487.5 140.2L527.7 100L555.4 127.7ZM555.4 190.2L552.7 192.9L537.5 177.7L552.7 162.5L555.4 165.2L542.9 177.7L555.4 190.2ZM505.4 102.7L477.7 130.4L450 102.7L452.7 100L477.7 125L502.7 100L505.4 102.7ZM555.4 140.2L517.9 177.7L542.9 202.7L540.2 205.4L512.5 177.7L552.7 137.5L555.4 140.2ZM555.4 202.7L552.7 205.4L525 177.7L552.7 150L555.4 152.7L530.4 177.7L555.4 202.7ZM517.9 102.7L480.4 140.2L492.9 152.7L490.2 155.4L450 115.2L452.7 112.5L477.7 137.5L515.2 100L517.9 102.7ZM542.9 127.7L492.9 177.7L517.9 202.7L515.2 205.4L490.2 180.4L465.2 205.4L462.5 202.7L537.5 127.7L527.7 117.9L496.5 149.2L493.7 146.4L527.7 112.5L542.9 127.7ZM530.4 127.7L452.7 205.4L450 202.7L487.5 165.2L450 127.7L452.7 125L490.2 162.5L527.7 125L530.4 127.7ZM480.4 165.2L452.7 192.9L450 190.2L475 165.2L450 140.2L452.7 137.5L480.4 165.2ZM505.4 202.7L502.7 205.4L490.2 192.9L477.7 205.4L475 202.7L490.2 187.5L505.4 202.7ZM467.9 165.2L452.7 180.4L450 177.7L462.5 165.2L450 152.7L452.7 150L467.9 165.2ZM455.4 165.2L452.7 167.9L450 165.2L452.7 162.5L455.4 165.2ZM492.9 202.7L490.2 205.4L487.5 202.7L490.2 200L492.9 202.7Z" fill="black"/>
<path d="M655.4 102.7L652.7 105.4L650 102.7L652.7 100L655.4 102.7ZM655.4 115.2L652.7 117.9L637.5 102.7L640.2 100L655.4 115.2ZM655.4 127.7L652.7 130.4L625 102.7L627.7 100L655.4 127.7ZM655.4 140.2L640.2 155.4L637.5 152.7L650 140.2L615.2 105.4L602.7 117.9L600 115.2L615.2 100L655.4 140.2ZM655.4 152.7L640.2 167.9L625 152.7L637.5 140.2L615.2 117.9L602.7 130.4L587.5 115.2L602.7 100L605.4 102.7L592.9 115.2L602.7 125L615.2 112.5L642.9 140.2L630.4 152.7L640.2 162.5L652.7 150L655.4 152.7ZM580.4 102.7L577.7 105.4L575 102.7L577.7 100L580.4 102.7ZM655.4 165.2L640.2 180.4L612.5 152.7L625 140.2L615.2 130.4L580.4 165.2L590.2 175L602.7 162.5L630.4 190.2L615.2 205.4L612.5 202.7L625 190.2L602.7 167.9L590.2 180.4L575 165.2L600 140.2L562.5 102.7L565.2 100L577.7 112.5L590.2 100L592.9 102.7L580.4 115.2L602.7 137.5L615.2 125L630.4 140.2L617.9 152.7L640.2 175L652.7 162.5L655.4 165.2ZM655.4 177.7L627.7 205.4L625 202.7L637.5 190.2L602.7 155.4L590.2 167.9L587.5 165.2L615.2 137.5L617.9 140.2L605.4 152.7L640.2 187.5L652.7 175L655.4 177.7ZM655.4 190.2L640.2 205.4L637.5 202.7L652.7 187.5L655.4 190.2ZM655.4 202.7L652.7 205.4L650 202.7L652.7 200L655.4 202.7ZM580.4 140.2L577.7 142.9L550 115.2L552.7 112.5L580.4 140.2ZM617.9 190.2L602.7 205.4L600 202.7L612.5 190.2L602.7 180.4L590.2 192.9L562.5 165.2L587.5 140.2L550 102.7L552.7 100L592.9 140.2L567.9 165.2L590.2 187.5L602.7 175L617.9 190.2ZM567.9 140.2L552.7 155.4L550 152.7L562.5 140.2L550 127.7L552.7 125L567.9 140.2ZM555.4 140.2L552.7 142.9L550 140.2L552.7 137.5L555.4 140.2ZM605.4 190.2L590.2 205.4L550 165.2L571.5 143.7L574.2 146.4L555.4 165.2L590.2 200L602.7 187.5L605.4 190.2ZM580.4 202.7L577.7 205.4L550 177.7L552.7 175L580.4 202.7ZM567.9 202.7L565.2 205.4L550 190.2L552.7 187.5L567.9 202.7ZM555.4 202.7L552.7 205.4L550 202.7L552.7 200L555.4 202.7Z" fill="black"/>
<path d="M755.4 102.7L752.7 105.4L750 102.7L752.7 100L755.4 102.7ZM755.4 115.2L752.7 117.9L737.5 102.7L740.2 100L755.4 115.2ZM755.4 127.7L752.7 130.4L725 102.7L727.7 100L755.4 127.7ZM755.4 140.2L752.7 142.9L712.5 102.7L715.2 100L755.4 140.2ZM755.4 152.7L752.7 155.4L700 102.7L702.7 100L755.4 152.7ZM755.4 165.2L752.7 167.9L690.2 105.4L667.9 127.7L680.4 140.2L659 161.7L656.2 158.9L675 140.2L650 115.2L652.7 112.5L665.2 125L690.2 100L755.4 165.2ZM667.9 102.7L665.2 105.4L662.5 102.7L665.2 100L667.9 102.7ZM755.4 190.2L752.7 192.9L687.5 127.7L690.2 125L755.4 190.2ZM680.4 102.7L665.2 117.9L650 102.7L652.7 100L665.2 112.5L677.7 100L680.4 102.7ZM755.4 177.7L752.7 180.4L690.2 117.9L680.4 127.7L692.9 140.2L667.9 165.2L680.4 177.7L665.2 192.9L650 177.7L652.7 175L665.2 187.5L675 177.7L662.5 165.2L687.5 140.2L675 127.7L690.2 112.5L755.4 177.7ZM755.4 202.7L752.7 205.4L702.7 155.4L692.9 165.2L730.4 202.7L727.7 205.4L687.5 165.2L702.7 150L755.4 202.7ZM742.9 202.7L740.2 205.4L700 165.2L702.7 162.5L742.9 202.7ZM667.9 140.2L652.7 155.4L650 152.7L662.5 140.2L650 127.7L652.7 125L667.9 140.2ZM655.4 140.2L652.7 142.9L650 140.2L652.7 137.5L655.4 140.2ZM717.9 202.7L715.2 205.4L690.2 180.4L665.2 205.4L650 190.2L652.7 187.5L665.2 200L687.5 177.7L675 165.2L696.5 143.7L699.2 146.4L680.4 165.2L717.9 202.7ZM705.4 202.7L702.7 205.4L690.2 192.9L677.7 205.4L675 202.7L690.2 187.5L705.4 202.7ZM667.9 177.7L665.2 180.4L650 165.2L652.7 162.5L667.9 177.7ZM692.9 202.7L690.2 205.4L687.5 202.7L690.2 200L692.9 202.7ZM655.4 202.7L652.7 205.4L650 202.7L652.7 200L655.4 202.7Z" fill="black"/>
<path d="M780.4 102.7L777.7 105.4L775 102.7L777.7 100L780.4 102.7ZM780.4 115.2L777.7 117.9L762.5 102.7L765.2 100L780.4 115.2ZM780.4 127.7L777.7 130.4L750 102.7L752.7 100L780.4 127.7ZM780.4 140.2L777.7 142.9L750 115.2L752.7 112.5L780.4 140.2ZM780.4 152.7L777.7 155.4L750 127.7L752.7 125L780.4 152.7ZM780.4 165.2L777.7 167.9L750 140.2L752.7 137.5L780.4 165.2ZM780.4 177.7L777.7 180.4L750 152.7L752.7 150L780.4 177.7ZM780.4 190.2L777.7 192.9L750 165.2L752.7 162.5L780.4 190.2ZM780.4 202.7L777.7 205.4L750 177.7L752.7 175L780.4 202.7ZM767.9 202.7L765.2 205.4L750 190.2L752.7 187.5L767.9 202.7ZM755.4 202.7L752.7 205.4L750 202.7L752.7 200L755.4 202.7Z" fill="black"/>
<path d="M880.4 102.7L877.7 105.4L875 102.7L877.7 100L880.4 102.7ZM880.4 115.2L877.7 117.9L862.5 102.7L865.2 100L880.4 115.2ZM805.4 102.7L802.7 105.4L800 102.7L802.7 100L805.4 102.7ZM880.4 177.7L877.7 180.4L875 177.7L877.7 175L880.4 177.7ZM817.9 102.7L802.7 117.9L787.5 102.7L790.2 100L802.7 112.5L815.2 100L817.9 102.7ZM880.4 127.7L830.4 177.7L855.4 202.7L852.7 205.4L825 177.7L875 127.7L852.7 105.4L815.2 142.9L812.5 140.2L852.7 100L880.4 127.7ZM880.4 190.2L877.7 192.9L862.5 177.7L877.7 162.5L880.4 165.2L867.9 177.7L880.4 190.2ZM830.4 102.7L802.7 130.4L775 102.7L777.7 100L802.7 125L827.7 100L830.4 102.7ZM880.4 140.2L842.9 177.7L867.9 202.7L865.2 205.4L837.5 177.7L877.7 137.5L880.4 140.2ZM880.4 202.7L877.7 205.4L850 177.7L877.7 150L880.4 152.7L855.4 177.7L880.4 202.7ZM842.9 102.7L805.4 140.2L817.9 152.7L815.2 155.4L775 115.2L777.7 112.5L802.7 137.5L840.2 100L842.9 102.7ZM867.9 127.7L817.9 177.7L842.9 202.7L840.2 205.4L815.2 180.4L790.2 205.4L787.5 202.7L862.5 127.7L852.7 117.9L821.5 149.2L818.7 146.4L852.7 112.5L867.9 127.7ZM855.4 127.7L777.7 205.4L775 202.7L812.5 165.2L775 127.7L777.7 125L815.2 162.5L852.7 125L855.4 127.7ZM805.4 165.2L777.7 192.9L775 190.2L800 165.2L775 140.2L777.7 137.5L805.4 165.2ZM830.4 202.7L827.7 205.4L815.2 192.9L802.7 205.4L800 202.7L815.2 187.5L830.4 202.7ZM792.9 165.2L777.7 180.4L775 177.7L787.5 165.2L775 152.7L777.7 150L792.9 165.2ZM780.4 165.2L777.7 167.9L775 165.2L777.7 162.5L780.4 165.2ZM817.9 202.7L815.2 205.4L812.5 202.7L815.2 200L817.9 202.7Z" fill="black"/>
<path d="M980.4 102.7L977.7 105.4L975 102.7L977.7 100L980.4 102.7ZM980.4 115.2L977.7 117.9L962.5 102.7L965.2 100L980.4 115.2ZM980.4 127.7L977.7 130.4L950 102.7L952.7 100L980.4 127.7ZM980.4 140.2L965.2 155.4L962.5 152.7L975 140.2L940.2 105.4L927.7 117.9L925 115.2L940.2 100L980.4 140.2ZM980.4 152.7L965.2 167.9L950 152.7L962.5 140.2L940.2 117.9L927.7 130.4L912.5 115.2L927.7 100L930.4 102.7L917.9 115.2L927.7 125L940.2 112.5L967.9 140.2L955.4 152.7L965.2 162.5L977.7 150L980.4 152.7ZM905.4 102.7L902.7 105.4L900 102.7L902.7 100L905.4 102.7ZM980.4 165.2L965.2 180.4L937.5 152.7L950 140.2L940.2 130.4L905.4 165.2L915.2 175L927.7 162.5L955.4 190.2L940.2 205.4L937.5 202.7L950 190.2L927.7 167.9L915.2 180.4L900 165.2L925 140.2L887.5 102.7L890.2 100L902.7 112.5L915.2 100L917.9 102.7L905.4 115.2L927.7 137.5L940.2 125L955.4 140.2L942.9 152.7L965.2 175L977.7 162.5L980.4 165.2ZM980.4 177.7L952.7 205.4L950 202.7L962.5 190.2L927.7 155.4L915.2 167.9L912.5 165.2L940.2 137.5L942.9 140.2L930.4 152.7L965.2 187.5L977.7 175L980.4 177.7ZM980.4 190.2L965.2 205.4L962.5 202.7L977.7 187.5L980.4 190.2ZM980.4 202.7L977.7 205.4L975 202.7L977.7 200L980.4 202.7ZM905.4 140.2L902.7 142.9L875 115.2L877.7 112.5L905.4 140.2ZM942.9 190.2L927.7 205.4L925 202.7L937.5 190.2L927.7 180.4L915.2 192.9L887.5 165.2L912.5 140.2L875 102.7L877.7 100L917.9 140.2L892.9 165.2L915.2 187.5L927.7 175L942.9 190.2ZM892.9 140.2L877.7 155.4L875 152.7L887.5 140.2L875 127.7L877.7 125L892.9 140.2ZM880.4 140.2L877.7 142.9L875 140.2L877.7 137.5L880.4 140.2ZM930.4 190.2L915.2 205.4L875 165.2L896.5 143.7L899.2 146.4L880.4 165.2L915.2 200L927.7 187.5L930.4 190.2ZM905.4 202.7L902.7 205.4L875 177.7L877.7 175L905.4 202.7ZM892.9 202.7L890.2 205.4L875 190.2L877.7 187.5L892.9 202.7ZM880.4 202.7L877.7 205.4L875 202.7L877.7 200L880.4 202.7Z" fill="black"/>
<path d="M1080.4 102.7L1077.7 105.4L1075 102.7L1077.7 100L1080.4 102.7ZM1080.4 115.2L1077.7 117.9L1062.5 102.7L1065.2 100L1080.4 115.2ZM1080.4 127.7L1077.7 130.4L1050 102.7L1052.7 100L1080.4 127.7ZM1080.4 140.2L1077.7 142.9L1037.5 102.7L1040.2 100L1080.4 140.2ZM1080.4 152.7L1077.7 155.4L1025 102.7L1027.7 100L1080.4 152.7ZM1080.4 165.2L1077.7 167.9L1015.2 105.4L992.9 127.7L1005.4 140.2L984 161.7L981.2 158.9L1000 140.2L975 115.2L977.7 112.5L990.2 125L1015.2 100L1080.4 165.2ZM992.9 102.7L990.2 105.4L987.5 102.7L990.2 100L992.9 102.7ZM1080.4 190.2L1077.7 192.9L1012.5 127.7L1015.2 125L1080.4 190.2ZM1005.4 102.7L990.2 117.9L975 102.7L977.7 100L990.2 112.5L1002.7 100L1005.4 102.7ZM1080.4 177.7L1077.7 180.4L1015.2 117.9L1005.4 127.7L1017.9 140.2L992.9 165.2L1005.4 177.7L990.2 192.9L975 177.7L977.7 175L990.2 187.5L1000 177.7L987.5 165.2L1012.5 140.2L1000 127.7L1015.2 112.5L1080.4 177.7ZM1080.4 202.7L1077.7 205.4L1027.7 155.4L1017.9 165.2L1055.4 202.7L1052.7 205.4L1012.5 165.2L1027.7 150L1080.4 202.7ZM1067.9 202.7L1065.2 205.4L1025 165.2L1027.7 162.5L1067.9 202.7ZM992.9 140.2L977.7 155.4L975 152.7L987.5 140.2L975 127.7L977.7 125L992.9 140.2ZM980.4 140.2L977.7 142.9L975 140.2L977.7 137.5L980.4 140.2ZM1042.9 202.7L1040.2 205.4L1015.2 180.4L990.2 205.4L975 190.2L977.7 187.5L990.2 200L1012.5 177.7L1000 165.2L1021.5 143.7L1024.2 146.4L1005.4 165.2L1042.9 202.7ZM1030.4 202.7L1027.7 205.4L1015.2 192.9L1002.7 205.4L1000 202.7L1015.2 187.5L1030.4 202.7ZM992.9 177.7L990.2 180.4L975 165.2L977.7 162.5L992.9 177.7ZM1017.9 202.7L1015.2 205.4L1012.5 202.7L1015.2 200L1017.9 202.7ZM980.4 202.7L977.7 205.4L975 202.7L977.7 200L980.4 202.7Z" fill="black"/>
<path d="M1105.4 102.7L1102.7 105.4L1100 102.7L1102.7 100L1105.4 102.7ZM1105.4 115.2L1102.7 117.9L1087.5 102.7L1090.2 100L1105.4 115.2ZM1105.4 127.7L1102.7 130.4L1075 102.7L1077.7 100L1105.4 127.7ZM1105.4 140.2L1102.7 142.9L1075 115.2L1077.7 112.5L1105.4 140.2ZM1105.4 152.7L1102.7 155.4L1075 127.7L1077.7 125L1105.4 152.7ZM1105.4 165.2L1102.7 167.9L1075 140.2L1077.7 137.5L1105.4 165.2ZM1105.4 177.7L1102.7 180.4L1075 152.7L1077.7 150L1105.4 177.7ZM1105.4 190.2L1102.7 192.9L1075 165.2L1077.7 162.5L1105.4 190.2ZM1105.4 202.7L1102.7 205.4L1075 177.7L1077.7 175L1105.4 202.7ZM1092.9 202.7L1090.2 205.4L1075 190.2L1077.7 187.5L1092.9 202.7ZM1080.4 202.7L1077.7 205.4L1075 202.7L1077.7 200L1080.4 202.7Z" fill="black"/>
<path d="M1205.4 102.7L1202.7 105.4L1200 102.7L1202.7 100L1205.4 102.7ZM1205.4 115.2L1202.7 117.9L1187.5 102.7L1190.2 100L1205.4 115.2ZM1130.4 102.7L1127.7 105.4L1125 102.7L1127.7 100L1130.4 102.7ZM1205.4 177.7L1202.7 180.4L1200 177.7L1202.7 175L1205.4 177.7ZM1142.9 102.7L1127.7 117.9L1112.5 102.7L1115.2 100L1127.7 112.5L1140.2 100L1142.9 102.7ZM1205.4 127.7L1155.4 177.7L1180.4 202.7L1177.7 205.4L1150 177.7L1200 127.7L1177.7 105.4L1140.2 142.9L1137.5 140.2L1177.7 100L1205.4 127.7ZM1205.4 190.2L1202.7 192.9L1187.5 177.7L1202.7 162.5L1205.4 165.2L1192.9 177.7L1205.4 190.2ZM1155.4 102.7L1127.7 130.4L1100 102.7L1102.7 100L1127.7 125L1152.7 100L1155.4 102.7ZM1205.4 140.2L1167.9 177.7L1192.9 202.7L1190.2 205.4L1162.5 177.7L1202.7 137.5L1205.4 140.2ZM1205.4 202.7L1202.7 205.4L1175 177.7L1202.7 150L1205.4 152.7L1180.4 177.7L1205.4 202.7ZM1167.9 102.7L1130.4 140.2L1142.9 152.7L1140.2 155.4L1100 115.2L1102.7 112.5L1127.7 137.5L1165.2 100L1167.9 102.7ZM1192.9 127.7L1142.9 177.7L1167.9 202.7L1165.2 205.4L1140.2 180.4L1115.2 205.4L1112.5 202.7L1187.5 127.7L1177.7 117.9L1146.5 149.2L1143.7 146.4L1177.7 112.5L1192.9 127.7ZM1180.4 127.7L1102.7 205.4L1100 202.7L1137.5 165.2L1100 127.7L1102.7 125L1140.2 162.5L1177.7 125L1180.4 127.7ZM1130.4 165.2L1102.7 192.9L1100 190.2L1125 165.2L1100 140.2L1102.7 137.5L1130.4 165.2ZM1155.4 202.7L1152.7 205.4L1140.2 192.9L1127.7 205.4L1125 202.7L1140.2 187.5L1155.4 202.7ZM1117.9 165.2L1102.7 180.4L1100 177.7L1112.5 165.2L1100 152.7L1102.7 150L1117.9 165.2ZM1105.4 165.2L1102.7 167.9L1100 165.2L1102.7 162.5L1105.4 165.2ZM1142.9 202.7L1140.2 205.4L1137.5 202.7L1140.2 200L1142.9 202.7Z" fill="black"/>
<path d="M105.4 202.7L102.7 205.4L100 202.7L102.7 200L105.4 202.7ZM105.4 215.2L102.7 217.9L87.5 202.7L90.2 200L105.4 215.2ZM105.4 227.7L102.7 230.4L75 202.7L77.7 200L105.4 227.7ZM105.4 240.2L90.2 255.4L87.5 252.7L100 240.2L65.2 205.4L52.7 217.9L50 215.2L65.2 200L105.4 240.2ZM105.4 252.7L90.2 267.9L75 252.7L87.5 240.2L65.2 217.9L52.7 230.4L37.5 215.2L52.7 200L55.4 202.7L42.9 215.2L52.7 225L65.2 212.5L92.9 240.2L80.4 252.7L90.2 262.5L102.7 250L105.4 252.7ZM30.4 202.7L27.7 205.4L25 202.7L27.7 200L30.4 202.7ZM105.4 265.2L90.2 280.4L62.5 252.7L75 240.2L65.2 230.4L30.4 265.2L40.2 275L52.7 262.5L80.4 290.2L65.2 305.4L62.5 302.7L75 290.2L52.7 267.9L40.2 280.4L25 265.2L50 240.2L12.5 202.7L15.2 200L27.7 212.5L40.2 200L42.9 202.7L30.4 215.2L52.7 237.5L65.2 225L80.4 240.2L67.9 252.7L90.2 275L102.7 262.5L105.4 265.2ZM105.4 277.7L77.7 305.4L75 302.7L87.5 290.2L52.7 255.4L40.2 267.9L37.5 265.2L65.2 237.5L67.9 240.2L55.4 252.7L90.2 287.5L102.7 275L105.4 277.7ZM105.4 290.2L90.2 305.4L87.5 302.7L102.7 287.5L105.4 290.2ZM105.4 302.7L102.7 305.4L100 302.7L102.7 300L105.4 302.7ZM30.4 240.2L27.7 242.9L0 215.2L2.7 212.5L30.4 240.2ZM67.9 290.2L52.7 305.4L50 302.7L62.5 290.2L52.7 280.4L40.2 292.9L12.5 265.2L37.5 240.2L0 202.7L2.7 200L42.9 240.2L17.9 265.2L40.2 287.5L52.7 275L67.9 290.2ZM17.9 240.2L2.7 255.4L0 252.7L12.5 240.2L0 227.7L2.7 225L17.9 240.2ZM5.4 240.2L2.7 242.9L0 240.2L2.7 237.5L5.4 240.2ZM55.4 290.2L40.2 305.4L0 265.2L21.5 243.7L24.2 246.4L5.4 265.2L40.2 300L52.7 287.5L55.4 290.2ZM30.4 302.7L27.7 305.4L0 277.7L2.7 275L30.4 302.7ZM17.9 302.7L15.2 305.4L0 290.2L2.7 287.5L17.9 302.7ZM5.4 302.7L2.7 305.4L0 302.7L2.7 300L5.4 302.7Z" fill="black"/>
<path d="M205.4 202.7L202.7 205.4L200 202.7L202.7 200L205.4 202.7ZM205.4 215.2L202.7 217.9L187.5 202.7L190.2 200L205.4 215.2ZM205.4 227.7L202.7 230.4L175 202.7L177.7 200L205.4 227.7ZM205.4 240.2L202.7 242.9L162.5 202.7L165.2 200L205.4 240.2ZM205.4 252.7L202.7 255.4L150 202.7L152.7 200L205.4 252.7ZM205.4 265.2L202.7 267.9L140.2 205.4L117.9 227.7L130.4 240.2L109 261.7L106.2 258.9L125 240.2L100 215.2L102.7 212.5L115.2 225L140.2 200L205.4 265.2ZM117.9 202.7L115.2 205.4L112.5 202.7L115.2 200L117.9 202.7ZM205.4 290.2L202.7 292.9L137.5 227.7L140.2 225L205.4 290.2ZM130.4 202.7L115.2 217.9L100 202.7L102.7 200L115.2 212.5L127.7 200L130.4 202.7ZM205.4 277.7L202.7 280.4L140.2 217.9L130.4 227.7L142.9 240.2L117.9 265.2L130.4 277.7L115.2 292.9L100 277.7L102.7 275L115.2 287.5L125 277.7L112.5 265.2L137.5 240.2L125 227.7L140.2 212.5L205.4 277.7ZM205.4 302.7L202.7 305.4L152.7 255.4L142.9 265.2L180.4 302.7L177.7 305.4L137.5 265.2L152.7 250L205.4 302.7ZM192.9 302.7L190.2 305.4L150 265.2L152.7 262.5L192.9 302.7ZM117.9 240.2L102.7 255.4L100 252.7L112.5 240.2L100 227.7L102.7 225L117.9 240.2ZM105.4 240.2L102.7 242.9L100 240.2L102.7 237.5L105.4 240.2ZM167.9 302.7L165.2 305.4L140.2 280.4L115.2 305.4L100 290.2L102.7 287.5L115.2 300L137.5 277.7L125 265.2L146.5 243.7L149.2 246.4L130.4 265.2L167.9 302.7ZM155.4 302.7L152.7 305.4L140.2 292.9L127.7 305.4L125 302.7L140.2 287.5L155.4 302.7ZM117.9 277.7L115.2 280.4L100 265.2L102.7 262.5L117.9 277.7ZM142.9 302.7L140.2 305.4L137.5 302.7L140.2 300L142.9 302.7ZM105.4 302.7L102.7 305.4L100 302.7L102.7 300L105.4 302.7Z" fill="black"/>
<path d="M230.4 202.7L227.7 205.4L225 202.7L227.7 200L230.4 202.7ZM230.4 215.2L227.7 217.9L212.5 202.7L215.2 200L230.4 215.2ZM230.4 227.7L227.7 230.4L200 202.7L202.7 200L230.4 227.7ZM230.4 240.2L227.7 242.9L200 215.2L202.7 212.5L230.4 240.2ZM230.4 252.7L227.7 255.4L200 227.7L202.7 225L230.4 252.7ZM230.4 265.2L227.7 267.9L200 240.2L202.7 237.5L230.4 265.2ZM230.4 277.7L227.7 280.4L200 252.7L202.7 250L230.4 277.7ZM230.4 290.2L227.7 292.9L200 265.2L202.7 262.5L230.4 290.2ZM230.4 302.7L227.7 305.4L200 277.7L202.7 275L230.4 302.7ZM217.9 302.7L215.2 305.4L200 290.2L202.7 287.5L217.9 302.7ZM205.4 302.7L202.7 305.4L200 302.7L202.7 300L205.4 302.7Z" fill="black"/>
<path d="M330.4 202.7L327.7 205.4L325 202.7L327.7 200L330.4 202.7ZM330.4 215.2L327.7 217.9L312.5 202.7L315.2 200L330.4 215.2ZM255.4 202.7L252.7 205.4L250 202.7L252.7 200L255.4 202.7ZM330.4 277.7L327.7 280.4L325 277.7L327.7 275L330.4 277.7ZM267.9 202.7L252.7 217.9L237.5 202.7L240.2 200L252.7 212.5L265.2 200L267.9 202.7ZM330.4 227.7L280.4 277.7L305.4 302.7L302.7 305.4L275 277.7L325 227.7L302.7 205.4L265.2 242.9L262.5 240.2L302.7 200L330.4 227.7ZM330.4 290.2L327.7 292.9L312.5 277.7L327.7 262.5L330.4 265.2L317.9 277.7L330.4 290.2ZM280.4 202.7L252.7 230.4L225 202.7L227.7 200L252.7 225L277.7 200L280.4 202.7ZM330.4 240.2L292.9 277.7L317.9 302.7L315.2 305.4L287.5 277.7L327.7 237.5L330.4 240.2ZM330.4 302.7L327.7 305.4L300 277.7L327.7 250L330.4 252.7L305.4 277.7L330.4 302.7ZM292.9 202.7L255.4 240.2L267.9 252.7L265.2 255.4L225 215.2L227.7 212.5L252.7 237.5L290.2 200L292.9 202.7ZM317.9 227.7L267.9 277.7L292.9 302.7L290.2 305.4L265.2 280.4L240.2 305.4L237.5 302.7L312.5 227.7L302.7 217.9L271.5 249.2L268.7 246.4L302.7 212.5L317.9 227.7ZM305.4 227.7L227.7 305.4L225 302.7L262.5 265.2L225 227.7L227.7 225L265.2 262.5L302.7 225L305.4 227.7ZM255.4 265.2L227.7 292.9L225 290.2L250 265.2L225 240.2L227.7 237.5L255.4 265.2ZM280.4 302.7L277.7 305.4L265.2 292.9L252.7 305.4L250 302.7L265.2 287.5L280.4 302.7ZM242.9 265.2L227.7 280.4L225 277.7L237.5 265.2L225 252.7L227.7 250L242.9 265.2ZM230.4 265.2L227.7 267.9L225 265.2L227.7 262.5L230.4 265.2ZM267.9 302.7L265.2 305.4L262.5 302.7L265.2 300L267.9 302.7Z" fill="black"/>
<path d="M430.4 202.7L427.7 205.4L425 202.7L427.7 200L430.4 202.7ZM430.4 215.2L427.7 217.9L412.5 202.7L415.2 200L430.4 215.2ZM430.4 227.7L427.7 230.4L400 202.7L402.7 200L430.4 227.7ZM430.4 240.2L415.2 255.4L412.5 252.7L425 240.2L390.2 205.4L377.7 217.9L375 215.2L390.2 200L430.4 240.2ZM430.4 252.7L415.2 267.9L400 252.7L412.5 240.2L390.2 217.9L377.7 230.4L362.5 215.2L377.7 200L380.4 202.7L367.9 215.2L377.7 225L390.2 212.5L417.9 240.2L405.4 252.7L415.2 262.5L427.7 250L430.4 252.7ZM355.4 202.7L352.7 205.4L350 202.7L352.7 200L355.4 202.7ZM430.4 265.2L415.2 280.4L387.5 252.7L400 240.2L390.2 230.4L355.4 265.2L365.2 275L377.7 262.5L405.4 290.2L390.2 305.4L387.5 302.7L400 290.2L377.7 267.9L365.2 280.4L350 265.2L375 240.2L337.5 202.7L340.2 200L352.7 212.5L365.2 200L367.9 202.7L355.4 215.2L377.7 237.5L390.2 225L405.4 240.2L392.9 252.7L415.2 275L427.7 262.5L430.4 265.2ZM430.4 277.7L402.7 305.4L400 302.7L412.5 290.2L377.7 255.4L365.2 267.9L362.5 265.2L390.2 237.5L392.9 240.2L380.4 252.7L415.2 287.5L427.7 275L430.4 277.7ZM430.4 290.2L415.2 305.4L412.5 302.7L427.7 287.5L430.4 290.2ZM430.4 302.7L427.7 305.4L425 302.7L427.7 300L430.4 302.7ZM355.4 240.2L352.7 242.9L325 215.2L327.7 212.5L355.4 240.2ZM392.9 290.2L377.7 305.4L375 302.7L387.5 290.2L377.7 280.4L365.2 292.9L337.5 265.2L362.5 240.2L325 202.7L327.7 200L367.9 240.2L342.9 265.2L365.2 287.5L377.7 275L392.9 290.2ZM342.9 240.2L327.7 255.4L325 252.7L337.5 240.2L325 227.7L327.7 225L342.9 240.2ZM330.4 240.2L327.7 242.9L325 240.2L327.7 237.5L330.4 240.2ZM380.4 290.2L365.2 305.4L325 265.2L346.5 243.7L349.2 246.4L330.4 265.2L365.2 300L377.7 287.5L380.4 290.2ZM355.4 302.7L352.7 305.4L325 277.7L327.7 275L355.4 302.7ZM342.9 302.7L340.2 305.4L325 290.2L327.7 287.5L342.9 302.7ZM330.4 302.7L327.7 305.4L325 302.7L327.7 300L330.4 302.7Z" fill="black"/>
<path d="M530.4 202.7L527.7 205.4L525 202.7L527.7 200L530.4 202.7ZM530.4 215.2L527.7 217.9L512.5 202.7L515.2 200L530.4 215.2ZM530.4 227.7L527.7 230.4L500 202.7L502.7 200L530.4 227.7ZM530.4 240.2L527.7 242.9L487.5 202.7L490.2 200L530.4 240.2ZM530.4 252.7L527.7 255.4L475 202.7L477.7 200L530.4 252.7ZM530.4 265.2L527.7 267.9L465.2 205.4L442.9 227.7L455.4 240.2L434 261.7L431.2 258.9L450 240.2L425 215.2L427.7 212.5L440.2 225L465.2 200L530.4 265.2ZM442.9 202.7L440.2 205.4L437.5 202.7L440.2 200L442.9 202.7ZM530.4 290.2L527.7 292.9L462.5 227.7L465.2 225L530.4 290.2ZM455.4 202.7L440.2 217.9L425 202.7L427.7 200L440.2 212.5L452.7 200L455.4 202.7ZM530.4 277.7L527.7 280.4L465.2 217.9L455.4 227.7L467.9 240.2L442.9 265.2L455.4 277.7L440.2 292.9L425 277.7L427.7 275L440.2 287.5L450 277.7L437.5 265.2L462.5 240.2L450 227.7L465.2 212.5L530.4 277.7ZM530.4 302.7L527.7 305.4L477.7 255.4L467.9 265.2L505.4 302.7L502.7 305.4L462.5 265.2L477.7 250L530.4 302.7ZM517.9 302.7L515.2 305.4L475 265.2L477.7 262.5L517.9 302.7ZM442.9 240.2L427.7 255.4L425 252.7L437.5 240.2L425 227.7L427.7 225L442.9 240.2ZM430.4 240.2L427.7 242.9L425 240.2L427.7 237.5L430.4 240.2ZM492.9 302.7L490.2 305.4L465.2 280.4L440.2 305.4L425 290.2L427.7 287.5L440.2 300L462.5 277.7L450 265.2L471.5 243.7L474.2 246.4L455.4 265.2L492.9 302.7ZM480.4 302.7L477.7 305.4L465.2 292.9L452.7 305.4L450 302.7L465.2 287.5L480.4 302.7ZM442.9 277.7L440.2 280.4L425 265.2L427.7 262.5L442.9 277.7ZM467.9 302.7L465.2 305.4L462.5 302.7L465.2 300L467.9 302.7ZM430.4 302.7L427.7 305.4L425 302.7L427.7 300L430.4 302.7Z" fill="black"/>
<path d="M555.4 202.7L552.7 205.4L550 202.7L552.7 200L555.4 202.7ZM555.4 215.2L552.7 217.9L537.5 202.7L540.2 200L555.4 215.2ZM555.4 227.7L552.7 230.4L525 202.7L527.7 200L555.4 227.7ZM555.4 240.2L552.7 242.9L525 215.2L527.7 212.5L555.4 240.2ZM555.4 252.7L552.7 255.4L525 227.7L527.7 225L555.4 252.7ZM555.4 265.2L552.7 267.9L525 240.2L527.7 237.5L555.4 265.2ZM555.4 277.7L552.7 280.4L525 252.7L527.7 250L555.4 277.7ZM555.4 290.2L552.7 292.9L525 265.2L527.7 262.5L555.4 290.2ZM555.4 302.7L552.7 305.4L525 277.7L527.7 275L555.4 302.7ZM542.9 302.7L540.2 305.4L525 290.2L527.7 287.5L542.9 302.7ZM530.4 302.7L527.7 305.4L525 302.7L527.7 300L530.4 302.7Z" fill="black"/>
<path d="M655.4 202.7L652.7 205.4L650 202.7L652.7 200L655.4 202.7ZM655.4 215.2L652.7 217.9L637.5 202.7L640.2 200L655.4 215.2ZM580.4 202.7L577.7 205.4L575 202.7L577.7 200L580.4 202.7ZM655.4 277.7L652.7 280.4L650 277.7L652.7 275L655.4 277.7ZM592.9 202.7L577.7 217.9L562.5 202.7L565.2 200L577.7 212.5L590.2 200L592.9 202.7ZM655.4 227.7L605.4 277.7L630.4 302.7L627.7 305.4L600 277.7L650 227.7L627.7 205.4L590.2 242.9L587.5 240.2L627.7 200L655.4 227.7ZM655.4 290.2L652.7 292.9L637.5 277.7L652.7 262.5L655.4 265.2L642.9 277.7L655.4 290.2ZM605.4 202.7L577.7 230.4L550 202.7L552.7 200L577.7 225L602.7 200L605.4 202.7ZM655.4 240.2L617.9 277.7L642.9 302.7L640.2 305.4L612.5 277.7L652.7 237.5L655.4 240.2ZM655.4 302.7L652.7 305.4L625 277.7L652.7 250L655.4 252.7L630.4 277.7L655.4 302.7ZM617.9 202.7L580.4 240.2L592.9 252.7L590.2 255.4L550 215.2L552.7 212.5L577.7 237.5L615.2 200L617.9 202.7ZM642.9 227.7L592.9 277.7L617.9 302.7L615.2 305.4L590.2 280.4L565.2 305.4L562.5 302.7L637.5 227.7L627.7 217.9L596.5 249.2L593.7 246.4L627.7 212.5L642.9 227.7ZM630.4 227.7L552.7 305.4L550 302.7L587.5 265.2L550 227.7L552.7 225L590.2 262.5L627.7 225L630.4 227.7ZM580.4 265.2L552.7 292.9L550 290.2L575 265.2L550 240.2L552.7 237.5L580.4 265.2ZM605.4 302.7L602.7 305.4L590.2 292.9L577.7 305.4L575 302.7L590.2 287.5L605.4 302.7ZM567.9 265.2L552.7 280.4L550 277.7L562.5 265.2L550 252.7L552.7 250L567.9 265.2ZM555.4 265.2L552.7 267.9L550 265.2L552.7 262.5L555.4 265.2ZM592.9 302.7L590.2 305.4L587.5 302.7L590.2 300L592.9 302.7Z" fill="black"/>
<path d="M755.4 202.7L752.7 205.4L750 202.7L752.7 200L755.4 202.7ZM755.4 215.2L752.7 217.9L737.5 202.7L740.2 200L755.4 215.2ZM755.4 227.7L752.7 230.4L725 202.7L727.7 200L755.4 227.7ZM755.4 240.2L740.2 255.4L737.5 252.7L750 240.2L715.2 205.4L702.7 217.9L700 215.2L715.2 200L755.4 240.2ZM755.4 252.7L740.2 267.9L725 252.7L737.5 240.2L715.2 217.9L702.7 230.4L687.5 215.2L702.7 200L705.4 202.7L692.9 215.2L702.7 225L715.2 212.5L742.9 240.2L730.4 252.7L740.2 262.5L752.7 250L755.4 252.7ZM680.4 202.7L677.7 205.4L675 202.7L677.7 200L680.4 202.7ZM755.4 265.2L740.2 280.4L712.5 252.7L725 240.2L715.2 230.4L680.4 265.2L690.2 275L702.7 262.5L730.4 290.2L715.2 305.4L712.5 302.7L725 290.2L702.7 267.9L690.2 280.4L675 265.2L700 240.2L662.5 202.7L665.2 200L677.7 212.5L690.2 200L692.9 202.7L680.4 215.2L702.7 237.5L715.2 225L730.4 240.2L717.9 252.7L740.2 275L752.7 262.5L755.4 265.2ZM755.4 277.7L727.7 305.4L725 302.7L737.5 290.2L702.7 255.4L690.2 267.9L687.5 265.2L715.2 237.5L717.9 240.2L705.4 252.7L740.2 287.5L752.7 275L755.4 277.7ZM755.4 290.2L740.2 305.4L737.5 302.7L752.7 287.5L755.4 290.2ZM755.4 302.7L752.7 305.4L750 302.7L752.7 300L755.4 302.7ZM680.4 240.2L677.7 242.9L650 215.2L652.7 212.5L680.4 240.2ZM717.9 290.2L702.7 305.4L700 302.7L712.5 290.2L702.7 280.4L690.2 292.9L662.5 265.2L687.5 240.2L650 202.7L652.7 200L692.9 240.2L667.9 265.2L690.2 287.5L702.7 275L717.9 290.2ZM667.9 240.2L652.7 255.4L650 252.7L662.5 240.2L650 227.7L652.7 225L667.9 240.2ZM655.4 240.2L652.7 242.9L650 240.2L652.7 237.5L655.4 240.2ZM705.4 290.2L690.2 305.4L650 265.2L671.5 243.7L674.2 246.4L655.4 265.2L690.2 300L702.7 287.5L705.4 290.2ZM680.4 302.7L677.7 305.4L650 277.7L652.7 275L680.4 302.7ZM667.9 302.7L665.2 305.4L650 290.2L652.7 287.5L667.9 302.7ZM655.4 302.7L652.7 305.4L650 302.7L652.7 300L655.4 302.7Z" fill="black"/>
<path d="M855.4 202.7L852.7 205.4L850 202.7L852.7 200L855.4 202.7ZM855.4 215.2L852.7 217.9L837.5 202.7L840.2 200L855.4 215.2ZM855.4 227.7L852.7 230.4L825 202.7L827.7 200L855.4 227.7ZM855.4 240.2L852.7 242.9L812.5 202.7L815.2 200L855.4 240.2ZM855.4 252.7L852.7 255.4L800 202.7L802.7 200L855.4 252.7ZM855.4 265.2L852.7 267.9L790.2 205.4L767.9 227.7L780.4 240.2L759 261.7L756.2 258.9L775 240.2L750 215.2L752.7 212.5L765.2 225L790.2 200L855.4 265.2ZM767.9 202.7L765.2 205.4L762.5 202.7L765.2 200L767.9 202.7ZM855.4 290.2L852.7 292.9L787.5 227.7L790.2 225L855.4 290.2ZM780.4 202.7L765.2 217.9L750 202.7L752.7 200L765.2 212.5L777.7 200L780.4 202.7ZM855.4 277.7L852.7 280.4L790.2 217.9L780.4 227.7L792.9 240.2L767.9 265.2L780.4 277.7L765.2 292.9L750 277.7L752.7 275L765.2 287.5L775 277.7L762.5 265.2L787.5 240.2L775 227.7L790.2 212.5L855.4 277.7ZM855.4 302.7L852.7 305.4L802.7 255.4L792.9 265.2L830.4 302.7L827.7 305.4L787.5 265.2L802.7 250L855.4 302.7ZM842.9 302.7L840.2 305.4L800 265.2L802.7 262.5L842.9 302.7ZM767.9 240.2L752.7 255.4L750 252.7L762.5 240.2L750 227.7L752.7 225L767.9 240.2ZM755.4 240.2L752.7 242.9L750 240.2L752.7 237.5L755.4 240.2ZM817.9 302.7L815.2 305.4L790.2 280.4L765.2 305.4L750 290.2L752.7 287.5L765.2 300L787.5 277.7L775 265.2L796.5 243.7L799.2 246.4L780.4 265.2L817.9 302.7ZM805.4 302.7L802.7 305.4L790.2 292.9L777.7 305.4L775 302.7L790.2 287.5L805.4 302.7ZM767.9 277.7L765.2 280.4L750 265.2L752.7 262.5L767.9 277.7ZM792.9 302.7L790.2 305.4L787.5 302.7L790.2 300L792.9 302.7ZM755.4 302.7L752.7 305.4L750 302.7L752.7 300L755.4 302.7Z" fill="black"/>
<path d="M880.4 202.7L877.7 205.4L875 202.7L877.7 200L880.4 202.7ZM880.4 215.2L877.7 217.9L862.5 202.7L865.2 200L880.4 215.2ZM880.4 227.7L877.7 230.4L850 202.7L852.7 200L880.4 227.7ZM880.4 240.2L877.7 242.9L850 215.2L852.7 212.5L880.4 240.2ZM880.4 252.7L877.7 255.4L850 227.7L852.7 225L880.4 252.7ZM880.4 265.2L877.7 267.9L850 240.2L852.7 237.5L880.4 265.2ZM880.4 277.7L877.7 280.4L850 252.7L852.7 250L880.4 277.7ZM880.4 290.2L877.7 292.9L850 265.2L852.7 262.5L880.4 290.2ZM880.4 302.7L877.7 305.4L850 277.7L852.7 275L880.4 302.7ZM867.9 302.7L865.2 305.4L850 290.2L852.7 287.5L867.9 302.7ZM855.4 302.7L852.7 305.4L850 302.7L852.7 300L855.4 302.7Z" fill="black"/>
<path d="M980.4 202.7L977.7 205.4L975 202.7L977.7 200L980.4 202.7ZM980.4 215.2L977.7 217.9L962.5 202.7L965.2 200L980.4 215.2ZM905.4 202.7L902.7 205.4L900 202.7L902.7 200L905.4 202.7ZM980.4 277.7L977.7 280.4L975 277.7L977.7 275L980.4 277.7ZM917.9 202.7L902.7 217.9L887.5 202.7L890.2 200L902.7 212.5L915.2 200L917.9 202.7ZM980.4 227.7L930.4 277.7L955.4 302.7L952.7 305.4L925 277.7L975 227.7L952.7 205.4L915.2 242.9L912.5 240.2L952.7 200L980.4 227.7ZM980.4 290.2L977.7 292.9L962.5 277.7L977.7 262.5L980.4 265.2L967.9 277.7L980.4 290.2ZM930.4 202.7L902.7 230.4L875 202.7L877.7 200L902.7 225L927.7 200L930.4 202.7ZM980.4 240.2L942.9 277.7L967.9 302.7L965.2 305.4L937.5 277.7L977.7 237.5L980.4 240.2ZM980.4 302.7L977.7 305.4L950 277.7L977.7 250L980.4 252.7L955.4 277.7L980.4 302.7ZM942.9 202.7L905.4 240.2L917.9 252.7L915.2 255.4L875 215.2L877.7 212.5L902.7 237.5L940.2 200L942.9 202.7ZM967.9 227.7L917.9 277.7L942.9 302.7L940.2 305.4L915.2 280.4L890.2 305.4L887.5 302.7L962.5 227.7L952.7 217.9L921.5 249.2L918.7 246.4L952.7 212.5L967.9 227.7ZM955.4 227.7L877.7 305.4L875 302.7L912.5 265.2L875 227.7L877.7 225L915.2 262.5L952.7 225L955.4 227.7ZM905.4 265.2L877.7 292.9L875 290.2L900 265.2L875 240.2L877.7 237.5L905.4 265.2ZM930.4 302.7L927.7 305.4L915.2 292.9L902.7 305.4L900 302.7L915.2 287.5L930.4 302.7ZM892.9 265.2L877.7 280.4L875 277.7L887.5 265.2L875 252.7L877.7 250L892.9 265.2ZM880.4 265.2L877.7 267.9L875 265.2L877.7 262.5L880.4 265.2ZM917.9 302.7L915.2 305.4L912.5 302.7L915.2 300L917.9 302.7Z" fill="black"/>
<path d="M1080.4 202.7L1077.7 205.4L1075 202.7L1077.7 200L1080.4 202.7ZM1080.4 215.2L1077.7 217.9L1062.5 202.7L1065.2 200L1080.4 215.2ZM1080.4 227.7L1077.7 230.4L1050 202.7L1052.7 200L1080.4 227.7ZM1080.4 240.2L1065.2 255.4L1062.5 252.7L1075 240.2L1040.2 205.4L1027.7 217.9L1025 215.2L1040.2 200L1080.4 240.2ZM1080.4 252.7L1065.2 267.9L1050 252.7L1062.5 240.2L1040.2 217.9L1027.7 230.4L1012.5 215.2L1027.7 200L1030.4 202.7L1017.9 215.2L1027.7 225L1040.2 212.5L1067.9 240.2L1055.4 252.7L1065.2 262.5L1077.7 250L1080.4 252.7ZM1005.4 202.7L1002.7 205.4L1000 202.7L1002.7 200L1005.4 202.7ZM1080.4 265.2L1065.2 280.4L1037.5 252.7L1050 240.2L1040.2 230.4L1005.4 265.2L1015.2 275L1027.7 262.5L1055.4 290.2L1040.2 305.4L1037.5 302.7L1050 290.2L1027.7 267.9L1015.2 280.4L1000 265.2L1025 240.2L987.5 202.7L990.2 200L1002.7 212.5L1015.2 200L1017.9 202.7L1005.4 215.2L1027.7 237.5L1040.2 225L1055.4 240.2L1042.9 252.7L1065.2 275L1077.7 262.5L1080.4 265.2ZM1080.4 277.7L1052.7 305.4L1050 302.7L1062.5 290.2L1027.7 255.4L1015.2 267.9L1012.5 265.2L1040.2 237.5L1042.9 240.2L1030.4 252.7L1065.2 287.5L1077.7 275L1080.4 277.7ZM1080.4 290.2L1065.2 305.4L1062.5 302.7L1077.7 287.5L1080.4 290.2ZM1080.4 302.7L1077.7 305.4L1075 302.7L1077.7 300L1080.4 302.7ZM1005.4 240.2L1002.7 242.9L975 215.2L977.7 212.5L1005.4 240.2ZM1042.9 290.2L1027.7 305.4L1025 302.7L1037.5 290.2L1027.7 280.4L1015.2 292.9L987.5 265.2L1012.5 240.2L975 202.7L977.7 200L1017.9 240.2L992.9 265.2L1015.2 287.5L1027.7 275L1042.9 290.2ZM992.9 240.2L977.7 255.4L975 252.7L987.5 240.2L975 227.7L977.7 225L992.9 240.2ZM980.4 240.2L977.7 242.9L975 240.2L977.7 237.5L980.4 240.2ZM1030.4 290.2L1015.2 305.4L975 265.2L996.5 243.7L999.2 246.4L980.4 265.2L1015.2 300L1027.7 287.5L1030.4 290.2ZM1005.4 302.7L1002.7 305.4L975 277.7L977.7 275L1005.4 302.7ZM992.9 302.7L990.2 305.4L975 290.2L977.7 287.5L992.9 302.7ZM980.4 302.7L977.7 305.4L975 302.7L977.7 300L980.4 302.7Z" fill="black"/>
<path d="M1180.4 202.7L1177.7 205.4L1175 202.7L1177.7 200L1180.4 202.7ZM1180.4 215.2L1177.7 217.9L1162.5 202.7L1165.2 200L1180.4 215.2ZM1180.4 227.7L1177.7 230.4L1150 202.7L1152.7 200L1180.4 227.7ZM1180.4 240.2L1177.7 242.9L1137.5 202.7L1140.2 200L1180.4 240.2ZM1180.4 252.7L1177.7 255.4L1125 202.7L1127.7 200L1180.4 252.7ZM1180.4 265.2L1177.7 267.9L1115.2 205.4L1092.9 227.7L1105.4 240.2L1084 261.7L1081.2 258.9L1100 240.2L1075 215.2L1077.7 212.5L1090.2 225L1115.2 200L1180.4 265.2ZM1092.9 202.7L1090.2 205.4L1087.5 202.7L1090.2 200L1092.9 202.7ZM1180.4 290.2L1177.7 292.9L1112.5 227.7L1115.2 225L1180.4 290.2ZM1105.4 202.7L1090.2 217.9L1075 202.7L1077.7 200L1090.2 212.5L1102.7 200L1105.4 202.7ZM1180.4 277.7L1177.7 280.4L1115.2 217.9L1105.4 227.7L1117.9 240.2L1092.9 265.2L1105.4 277.7L1090.2 292.9L1075 277.7L1077.7 275L1090.2 287.5L1100 277.7L1087.5 265.2L1112.5 240.2L1100 227.7L1115.2 212.5L1180.4 277.7ZM1180.4 302.7L1177.7 305.4L1127.7 255.4L1117.9 265.2L1155.4 302.7L1152.7 305.4L1112.5 265.2L1127.7 250L1180.4 302.7ZM1167.9 302.7L1165.2 305.4L1125 265.2L1127.7 262.5L1167.9 302.7ZM1092.9 240.2L1077.7 255.4L1075 252.7L1087.5 240.2L1075 227.7L1077.7 225L1092.9 240.2ZM1080.4 240.2L1077.7 242.9L1075 240.2L1077.7 237.5L1080.4 240.2ZM1142.9 302.7L1140.2 305.4L1115.2 280.4L1090.2 305.4L1075 290.2L1077.7 287.5L1090.2 300L1112.5 277.7L1100 265.2L1121.5 243.7L1124.2 246.4L1105.4 265.2L1142.9 302.7ZM1130.4 302.7L1127.7 305.4L1115.2 292.9L1102.7 305.4L1100 302.7L1115.2 287.5L1130.4 302.7ZM1092.9 277.7L1090.2 280.4L1075 265.2L1077.7 262.5L1092.9 277.7ZM1117.9 302.7L1115.2 305.4L1112.5 302.7L1115.2 300L1117.9 302.7ZM1080.4 302.7L1077.7 305.4L1075 302.7L1077.7 300L1080.4 302.7Z" fill="black"/>
<path d="M1205.4 202.7L1202.7 205.4L1200 202.7L1202.7 200L1205.4 202.7ZM1205.4 215.2L1202.7 217.9L1187.5 202.7L1190.2 200L1205.4 215.2ZM1205.4 227.7L1202.7 230.4L1175 202.7L1177.7 200L1205.4 227.7ZM1205.4 240.2L1202.7 242.9L1175 215.2L1177.7 212.5L1205.4 240.2ZM1205.4 252.7L1202.7 255.4L1175 227.7L1177.7 225L1205.4 252.7ZM1205.4 265.2L1202.7 267.9L1175 240.2L1177.7 237.5L1205.4 265.2ZM1205.4 277.7L1202.7 280.4L1175 252.7L1177.7 250L1205.4 277.7ZM1205.4 290.2L1202.7 292.9L1175 265.2L1177.7 262.5L1205.4 290.2ZM1205.4 302.7L1202.7 305.4L1175 277.7L1177.7 275L1205.4 302.7ZM1192.9 302.7L1190.2 305.4L1175 290.2L1177.7 287.5L1192.9 302.7ZM1180.4 302.7L1177.7 305.4L1175 302.7L1177.7 300L1180.4 302.7Z" fill="black"/>
</g>
</svg>
