<svg viewBox="0 0 20 20" fill="none" xmlns="http://www.w3.org/2000/svg">
<path d="M11.1 5.3C11.1 4.85817 10.7418 4.5 10.3 4.5C9.85817 4.5 9.5 4.85817 9.5 5.3V10.9C9.5 11.3418 9.85817 11.7 10.3 11.7C10.7418 11.7 11.1 11.3418 11.1 10.9V5.3Z" fill="#222222"/>
<path d="M11.1 14.1C11.1 13.6582 10.7418 13.3 10.3 13.3C9.85817 13.3 9.5 13.6582 9.5 14.1V14.18C9.5 14.6218 9.85817 14.98 10.3 14.98C10.7418 14.98 11.1 14.6218 11.1 14.18V14.1Z" fill="#222222"/>
<rect x="1" y="1" width="18" height="18" rx="9" stroke="#222222" stroke-width="2"/>
</svg>
