<svg width="63" height="50" viewBox="0 0 63 50" fill="none" xmlns="http://www.w3.org/2000/svg">
<path d="M53.125 0H9.375C6.8886 0 4.50403 0.987721 2.74587 2.74587C0.987721 4.50403 0 6.8886 0 9.375V40.625C0 43.1114 0.987721 45.496 2.74587 47.2541C4.50403 49.0123 6.8886 50 9.375 50H53.125C55.6114 50 57.996 49.0123 59.7541 47.2541C61.5123 45.496 62.5 43.1114 62.5 40.625V9.375C62.5 6.8886 61.5123 4.50403 59.7541 2.74587C57.996 0.987721 55.6114 0 53.125 0ZM48.2966 6.25C49.7696 6.25 50.3602 8.15132 49.1465 8.98595L32.8125 20.2188C32.3374 20.493 31.7986 20.6374 31.25 20.6374C30.7014 20.6374 30.1626 20.493 29.6875 20.2188L13.3535 8.98595C12.1398 8.15132 12.7304 6.25 14.2034 6.25H48.2966Z" fill="white"/>
</svg>
