<svg width="51" height="50" viewBox="0 0 51 50" fill="none" xmlns="http://www.w3.org/2000/svg">
<path d="M25.0567 0C10.9401 0 0 10.3171 0 24.2522C0 31.5409 2.99511 37.8396 7.87036 42.1907C8.71214 42.9478 8.53874 43.3863 8.68189 48.0609C8.69317 48.3884 8.78438 48.7081 8.94758 48.9922C9.11079 49.2762 9.34102 49.5161 9.6182 49.6908C9.89538 49.8655 10.2111 49.9697 10.5378 49.9943C10.8645 50.019 11.1923 49.9633 11.4925 49.8322C16.8265 47.4833 16.895 47.2978 17.7993 47.5438C33.2527 51.797 50.0026 41.9074 50.0026 24.2522C50.0026 10.3171 39.1744 0 25.0567 0ZM40.1018 18.6633L32.7426 30.314C32.4647 30.7522 32.0993 31.1281 31.6693 31.4184C31.2393 31.7087 30.754 31.9071 30.2438 32.0011C29.7335 32.095 29.2094 32.0826 28.7042 31.9646C28.199 31.8466 27.7236 31.6254 27.3078 31.3151L21.4527 26.9328C21.191 26.7365 20.8726 26.6304 20.5454 26.6304C20.2182 26.6304 19.8999 26.7365 19.6381 26.9328L11.7375 32.9251C10.683 33.7245 9.30189 32.4613 10.0126 31.3453L17.3719 19.6946C17.6497 19.2563 18.015 18.8802 18.445 18.5898C18.875 18.2995 19.3603 18.1011 19.8706 18.0071C20.3809 17.9131 20.9051 17.9255 21.4103 18.0437C21.9155 18.1618 22.3909 18.383 22.8066 18.6935L28.6597 23.0748C28.9215 23.2711 29.2398 23.3772 29.567 23.3772C29.8942 23.3772 30.2126 23.2711 30.4743 23.0748L38.379 17.0886C39.4314 16.2841 40.8126 17.5463 40.1018 18.6633Z" fill="white"/>
</svg>
