<svg width="50" height="50" viewBox="0 0 50 50" fill="none" xmlns="http://www.w3.org/2000/svg">
<path d="M27.5 15C29.4891 15 31.3968 15.7902 32.8033 17.1967C34.2098 18.6032 35 20.5109 35 22.5C35 23.163 35.2634 23.7989 35.7322 24.2678C36.2011 24.7366 36.837 25 37.5 25C38.163 25 38.7989 24.7366 39.2678 24.2678C39.7366 23.7989 40 23.163 40 22.5C40 19.1848 38.683 16.0054 36.3388 13.6612C33.9946 11.317 30.8152 10 27.5 10C26.837 10 26.2011 10.2634 25.7322 10.7322C25.2634 11.2011 25 11.837 25 12.5C25 13.163 25.2634 13.7989 25.7322 14.2678C26.2011 14.7366 26.837 15 27.5 15Z" fill="white"/>
<path d="M27.5 5C32.1413 5 36.5925 6.84374 39.8744 10.1256C43.1563 13.4075 45 17.8587 45 22.5C45 23.163 45.2634 23.7989 45.7322 24.2678C46.2011 24.7366 46.837 25 47.5 25C48.163 25 48.7989 24.7366 49.2678 24.2678C49.7366 23.7989 50 23.163 50 22.5C50 16.5326 47.6295 10.8097 43.4099 6.5901C39.1903 2.37053 33.4674 0 27.5 0C26.837 0 26.2011 0.263392 25.7322 0.732233C25.2634 1.20107 25 1.83696 25 2.5C25 3.16304 25.2634 3.79893 25.7322 4.26777C26.2011 4.73661 26.837 5 27.5 5ZM49.375 34.775C49.2375 34.3737 49.0001 34.0139 48.6852 33.7296C48.3703 33.4454 47.9883 33.2459 47.575 33.15L32.575 29.725C32.1678 29.6327 31.744 29.6438 31.3423 29.7573C30.9405 29.8709 30.5736 30.0832 30.275 30.375C29.925 30.7 29.9 30.725 28.275 33.825C22.883 31.3404 18.5625 27.0021 16.1 21.6C19.275 20 19.3 20 19.625 19.625C19.9168 19.3264 20.1291 18.9595 20.2427 18.5577C20.3562 18.156 20.3673 17.7322 20.275 17.325L16.85 2.5C16.7541 2.08674 16.5546 1.70468 16.2704 1.38978C15.9861 1.07488 15.6263 0.837506 15.225 0.7C14.6412 0.491474 14.0383 0.340751 13.425 0.25C12.7931 0.103488 12.1483 0.0197484 11.5 0C8.45001 0 5.52494 1.2116 3.36827 3.36827C1.2116 5.52494 0 8.45001 0 11.5C0.0132298 21.7068 4.07372 31.4917 11.291 38.709C18.5083 45.9263 28.2932 49.9868 38.5 50C40.0102 50 41.5056 49.7025 42.9009 49.1246C44.2961 48.5467 45.5639 47.6996 46.6317 46.6317C47.6996 45.5639 48.5467 44.2961 49.1246 42.9009C49.7025 41.5056 50 40.0102 50 38.5C50.0008 37.8637 49.9506 37.2283 49.85 36.6C49.7449 35.979 49.586 35.3684 49.375 34.775Z" fill="white"/>
</svg>
